<svg width="32" height="32" viewBox="0 0 32 32" fill="none" xmlns="http://www.w3.org/2000/svg">
<path d="M18.6022 18.367L18.3739 22.5605C18.3739 22.5605 18.6022 24.1977 17.004 25.203V27.0987H7.75778V16.3564C7.75778 16.3564 7.52948 14.2883 9.55567 13.2256" stroke="#555555" stroke-width="1.5"/>
<path d="M15.3203 18.9991L16.6615 20.3491L23.9958 12.9673L24.8519 12.1056C26.8781 10.0663 26.8781 6.76315 24.8519 4.72383C24.1955 4.0632 23.3965 3.60364 22.5403 3.37385C21.9981 3.23024 21.4559 3.17279 20.9137 3.20152C19.6865 3.25896 18.4594 3.77597 17.5177 4.72383L16.6615 5.58551L15.8054 4.72383C13.7792 2.68451 10.4974 2.68451 8.47118 4.72383C6.44499 6.76315 6.44499 10.0663 8.47118 12.1056L9.32731 12.9673L10.583 14.2311L12.9231 16.5864" stroke="#555555" stroke-width="1.5"/>
<path d="M10.0122 19.2576L15.8339 13.8864C15.8339 13.8864 16.9754 12.9673 17.7174 14.1449C18.4594 15.2938 17.2323 16.9597 17.2323 16.9597L14.4926 19.8895C14.4926 19.8895 15.9481 20.8086 15.0349 24.0543" stroke="#555555" stroke-width="1.5"/>
<path d="M6.67322 29.9996V27.0986H18.4308V29.9996" stroke="#555555" stroke-width="1.5"/>
</svg>
