<svg width="32" height="32" viewBox="0 0 32 32" fill="none" xmlns="http://www.w3.org/2000/svg">
<path d="M18.6021 18.3673L18.3738 22.5609C18.3738 22.5609 18.6021 24.1981 17.004 25.2034V27.0991H7.75772V16.3567C7.75772 16.3567 7.52942 14.2887 9.5556 13.226" stroke="white" stroke-width="1.5"/>
<path d="M15.3203 18.9992L16.6615 20.3492L23.9958 12.9674L24.8519 12.1057C26.8781 10.0664 26.8781 6.76327 24.8519 4.72395C24.1955 4.06332 23.3965 3.60376 22.5403 3.37398C21.9981 3.23036 21.4559 3.17292 20.9137 3.20164C19.6865 3.25908 18.4594 3.7761 17.5177 4.72395L16.6615 5.58563L15.8054 4.72395C13.7792 2.68463 10.4974 2.68463 8.47118 4.72395C6.44499 6.76327 6.44499 10.0664 8.47118 12.1057L9.32731 12.9674L10.583 14.2312L12.9231 16.5865" stroke="white" stroke-width="1.5"/>
<path d="M10.0122 19.2578L15.8339 13.8866C15.8339 13.8866 16.9754 12.9675 17.7174 14.1451C18.4594 15.2941 17.2323 16.96 17.2323 16.96L14.4926 19.8897C14.4926 19.8897 15.9481 20.8088 15.0349 24.0545" stroke="white" stroke-width="1.5"/>
<path d="M6.67322 30V27.099H18.4308V30" stroke="white" stroke-width="1.5"/>
</svg>
