<svg width="32" height="32" viewBox="0 0 32 32" fill="none" xmlns="http://www.w3.org/2000/svg">
<g clip-path="url(#clip0_226_1735)">
<path d="M16.0607 7.45356L21.4032 7.08215L28.4027 14.0817L24.2315 18.2242" stroke="#555555" stroke-width="1.5" stroke-miterlimit="10"/>
<path d="M14.2322 11.7104L6.83272 19.1099C6.26133 19.6813 6.26133 20.5956 6.83272 21.1384C7.40411 21.7098 8.31833 21.7098 8.86115 21.1384L9.91822 20.0813L9.94679 20.1099L8.88972 21.1669C8.31833 21.7383 8.31833 22.6526 8.88972 23.1954C9.46111 23.7668 10.3753 23.7668 10.9182 23.1954L11.9752 22.1383L12.0038 22.1669L10.9467 23.2239C10.3753 23.7953 10.3753 24.7096 10.9467 25.2524C11.5181 25.8238 12.4323 25.8238 12.9752 25.2524L14.0322 24.1953L14.0608 24.2239L13.0037 25.2809C12.4323 25.8523 12.4323 26.7666 13.0037 27.3094C13.5751 27.8808 14.4893 27.8808 15.0322 27.3094L15.7178 26.6237" stroke="#555555" stroke-width="1.5" stroke-miterlimit="10"/>
<path d="M18.7177 27.3093C18.1463 27.8807 17.232 27.8807 16.6892 27.3093L15.6322 26.2523C15.0608 25.6809 15.0608 24.7667 15.6322 24.2238C16.2035 23.6524 17.1178 23.6524 17.6606 24.2238L18.7177 25.2809C19.289 25.8237 19.289 26.7379 18.7177 27.3093Z" stroke="#555555" stroke-width="1.5" stroke-miterlimit="10"/>
<path d="M20.7747 25.2524C20.2033 25.8238 19.2891 25.8238 18.7462 25.2524L17.6892 24.1954C17.1178 23.624 17.1178 22.7098 17.6892 22.1669C18.2606 21.5956 19.1748 21.5956 19.7176 22.1669L20.7747 23.224C21.3461 23.7668 21.3461 24.6811 20.7747 25.2524Z" stroke="#555555" stroke-width="1.5" stroke-miterlimit="10"/>
<path d="M22.8317 23.1953C22.2603 23.7667 21.3461 23.7667 20.8032 23.1953L19.7176 22.1382C19.1462 21.5669 19.1462 20.6526 19.7176 20.1098C20.289 19.5384 21.2032 19.5384 21.746 20.1098L22.8031 21.1669C23.4031 21.7097 23.4031 22.6239 22.8317 23.1953Z" stroke="#555555" stroke-width="1.5" stroke-miterlimit="10"/>
<path d="M24.8887 21.1384C24.3173 21.7098 23.4031 21.7098 22.8602 21.1384L21.8032 20.0814C21.2318 19.51 21.2318 18.5958 21.8032 18.0529C22.3746 17.4815 23.2888 17.4815 23.8316 18.0529L24.8887 19.11C25.4601 19.6528 25.4601 20.567 24.8887 21.1384Z" stroke="#555555" stroke-width="1.5" stroke-miterlimit="10"/>
<path d="M12.9466 10.7962C12.9466 10.7962 14.6893 12.5961 18.2891 12.1104L20.1747 13.1674C20.8889 13.5674 21.8031 13.3389 22.2317 12.6246C22.6316 11.9675 22.4602 11.1104 21.8317 10.6533L18.3177 8.05352C17.8605 7.73925 17.3463 7.53926 16.8035 7.48213L10.5468 7.08215L3.54724 14.0817L7.68981 18.2242L14.0037 11.9104" stroke="#555555" stroke-width="1.5" stroke-miterlimit="10"/>
<path d="M8.57555 4.00929L1 11.5848L3.52518 14.11L11.1007 6.53447L8.57555 4.00929Z" stroke="#555555" stroke-width="1.5" stroke-miterlimit="10"/>
<path d="M20.8493 6.52516L28.4248 14.1007L30.95 11.5755L23.3744 3.99997L20.8493 6.52516Z" stroke="#555555" stroke-width="1.5" stroke-miterlimit="10"/>
</g>
<defs>
<clipPath id="clip0_226_1735">
<rect width="32" height="32" fill="white"/>
</clipPath>
</defs>
</svg>
