<svg width="32" height="32" viewBox="0 0 32 32" fill="none" xmlns="http://www.w3.org/2000/svg">
<path d="M19.7518 10.2278C21.6241 10.69 23.6776 10.197 25.1271 8.68705C26.6068 7.17711 27.09 5.08169 26.637 3.17115C24.7647 2.70893 22.6811 3.23278 21.2316 4.71191C20.4766 5.48228 19.7518 6.43755 19.7518 6.43755C19.7518 6.43755 19.0271 5.48228 18.2721 4.71191C16.7924 3.20197 14.739 2.70893 12.8667 3.17115C12.3835 5.08169 12.8969 7.20793 14.3766 8.68705C15.7959 10.197 17.8796 10.7208 19.7518 10.2278ZM19.7518 10.2278C19.7216 10.2278 19.7216 10.2278 19.7518 10.2278Z" stroke="white" stroke-width="1.5" stroke-miterlimit="10"/>
<path d="M16.5508 6.89966L19.7518 10.1661L22.9528 6.89966" stroke="white" stroke-width="1.5" stroke-miterlimit="10"/>
<path d="M19.7518 16.175V10.1353" stroke="white" stroke-width="1.5" stroke-miterlimit="10"/>
<path d="M14.9807 18.9176H18.6044C19.4802 18.9176 20.2049 18.178 20.2049 17.2844C20.2049 16.3907 19.4802 15.6512 18.6044 15.6512H14.9807C13.1688 14.6035 10.9039 14.9116 9.45442 16.4216L6.646 19.2874" stroke="white" stroke-width="1.5" stroke-miterlimit="10"/>
<path d="M20.2048 17.2844H22.6811L26.0029 13.864C26.6974 13.1552 27.7846 13.1552 28.4791 13.864C29.1737 14.5727 29.1737 15.682 28.4791 16.3908L25.1573 19.7805C24.342 20.6125 23.2851 21.1671 22.1677 21.352L14.2558 22.7387L11.991 25.0498" stroke="white" stroke-width="1.5" stroke-miterlimit="10"/>
<path d="M12.8398 26.1578L5.75061 18.9237L3.29501 21.4295L10.3842 28.6635L12.8398 26.1578Z" stroke="white" stroke-width="1.5" stroke-miterlimit="10"/>
</svg>
