<svg width="32" height="32" viewBox="0 0 32 32" fill="none" xmlns="http://www.w3.org/2000/svg">
<path d="M10.0526 15.1857H8.44006V16.8419H10.0526V15.1857Z" fill="#555555"/>
<path d="M12.8746 15.1857H11.2621V16.8419H12.8746V15.1857Z" fill="#555555"/>
<path d="M10.0526 18.719H8.44006V20.3752H10.0526V18.719Z" fill="#555555"/>
<path d="M12.8746 18.719H11.2621V20.3752H12.8746V18.719Z" fill="#555555"/>
<path d="M10.0526 22.2798H8.44006V23.936H10.0526V22.2798Z" fill="#555555"/>
<path d="M12.8746 22.2798H11.2621V23.936H12.8746V22.2798Z" fill="#555555"/>
<path d="M19.9429 8.06396H18.3303V9.72018H19.9429V8.06396Z" fill="#555555"/>
<path d="M22.7649 8.06396H21.1523V9.72018H22.7649V8.06396Z" fill="#555555"/>
<path d="M19.9429 11.6249H18.3303V13.2811H19.9429V11.6249Z" fill="#555555"/>
<path d="M22.7649 11.6249H21.1523V13.2811H22.7649V11.6249Z" fill="#555555"/>
<path d="M19.9429 15.1857H18.3303V16.8419H19.9429V15.1857Z" fill="#555555"/>
<path d="M22.7649 15.1857H21.1523V16.8419H22.7649V15.1857Z" fill="#555555"/>
<path d="M19.9429 18.719H18.3303V20.3752H19.9429V18.719Z" fill="#555555"/>
<path d="M22.7649 18.719H21.1523V20.3752H22.7649V18.719Z" fill="#555555"/>
<path d="M19.9429 22.2798H18.3303V23.936H19.9429V22.2798Z" fill="#555555"/>
<path d="M22.7649 22.2798H21.1523V23.936H22.7649V22.2798Z" fill="#555555"/>
<path d="M14.7828 5V11.9009H5V27H14.7828H16.3147H26.3125V5H14.7828ZM6.61255 25.3438V13.5571H14.7828V25.3438H6.61255ZM24.7 25.3438H16.3953V6.65621H24.7V25.3438Z" fill="#555555"/>
</svg>
