<svg width="32" height="32" viewBox="0 0 32 32" fill="none" xmlns="http://www.w3.org/2000/svg">
<path d="M24.9849 17.0177C26.2823 15.6923 27 13.9158 27 12.0547C27 10.1654 26.2823 8.41705 24.9849 7.09171C22.5282 4.55383 18.7189 4.32824 16.0138 6.41494C13.2811 4.32824 9.47177 4.55383 7.01506 7.06351C5.71769 8.38885 5 10.1654 5 12.0547C5 13.944 5.71769 15.6923 7.01506 17.0177L14.4404 24.6031C14.8821 25.0543 15.4341 25.2799 16.0138 25.2799C16.5935 25.2799 17.1455 25.0543 17.5872 24.6031L18.2221 23.9545V27H23.6324V23.5598H27V18.0046H24.0188L24.9849 17.0177ZM8.1744 15.8333C7.20828 14.8182 6.65621 13.4646 6.65621 12.0547C6.65621 10.6166 7.20828 9.29121 8.1744 8.27606C10.1619 6.24575 13.3639 6.16116 15.4341 8.13507L15.9862 8.67084L16.5383 8.13507C18.6085 6.16116 21.7829 6.24575 23.798 8.27606C24.7917 9.29121 25.3162 10.6166 25.3162 12.0547C25.3162 13.4928 24.7641 14.8182 23.798 15.8333L23.6324 16.0025V14.5644H18.2221V18.0046H14.8545V22.6292L8.1744 15.8333ZM15.8482 23.5598H16.1242C16.0414 23.5598 15.9586 23.5598 15.8482 23.5598ZM25.3438 21.8678H21.9762V25.3081H19.8783V21.8678H16.5107V19.7247H19.8783V16.2563H21.9762V19.6965H25.3438V21.8678Z" fill="#555555"/>
</svg>
