<svg width="32" height="32" viewBox="0 0 32 32" fill="none" xmlns="http://www.w3.org/2000/svg">
<path d="M15.9999 4C9.92706 4 5 9.10452 5 15.3961C5 18.631 6.34635 21.7471 8.66665 23.8839L9.2682 24.5071L9.61195 24.8632L9.12498 25.0116L8.15102 25.2787L8.60935 27L10.5286 26.4658L11.0156 26.3174L12.3333 25.9316L12.3619 24.8929V24.5961L12.4765 21.9252L10.7578 21.8658L10.7291 22.9045L10.7005 23.4981L10.2994 23.0826L9.86976 22.6374L9.81247 22.6077C7.86457 20.7677 6.71874 18.1561 6.71874 15.3961C6.71874 10.0839 10.8724 5.78065 15.9999 5.78065C21.1275 5.78065 25.2811 10.0839 25.2811 15.3961C25.2811 20.1445 21.8723 24.24 17.3463 24.9226L16.8593 25.0116V24.4774V20.1445H17.289H20.6405V12.5768H19.0364H18.6067V12.28V12.1316V9.84645H16.888V12.1316V12.28V12.5768H16.4583H15.5703H15.1406V12.28V12.1316V9.84645H13.4218V12.1316V12.28V12.5768H12.9921H11.3593V20.1445H14.7109H15.1406V26.7923H15.9999C22.0728 26.7923 26.9999 21.6877 26.9999 15.3961C27.0285 9.10452 22.0728 4 15.9999 4ZM13.5078 18.3639H13.0781V17.9187V14.8026V14.6245V14.3574H13.5078H15.5703H16.4583H18.5208H18.9504V14.6245V14.8026V17.9187V18.3639H18.5208H13.5078Z" fill="#555555"/>
</svg>
