<svg width="40" height="40" viewBox="0 0 40 40" fill="none" xmlns="http://www.w3.org/2000/svg">
<path d="M33.491 8.50074C30.1594 5.18009 24.7712 5.18009 21.3984 8.50074L20 9.89459L18.6015 8.50074C15.2699 5.18009 9.84059 5.18009 6.50897 8.50074C3.17735 11.8214 3.17735 17.2328 6.50897 20.5534L7.90743 21.9473L20 34L32.0925 21.9473L33.491 20.5534C36.8637 17.2328 36.8637 11.8214 33.491 8.50074Z" fill="#40A578"/>
<path d="M14.8997 13.5432C14.8997 15.101 13.6247 16.3309 12.1028 16.3309C10.5398 16.3309 9.30591 15.06 9.30591 13.5432C9.30591 11.9854 10.581 10.7555 12.1028 10.7555C13.6658 10.7555 14.8997 11.9854 14.8997 13.5432Z" fill="#9DDE8B"/>
</svg>
