<svg width="40" height="40" viewBox="0 0 40 40" fill="none" xmlns="http://www.w3.org/2000/svg">
<path d="M21.6628 35.3246C21.6628 36.2115 20.9182 36.9507 20.0248 36.9507C19.1314 36.9507 18.3868 36.2115 18.3868 35.3246V18.9159C18.3868 18.0289 19.1314 17.2898 20.0248 17.2898C20.9182 17.2898 21.6628 18.0289 21.6628 18.9159V35.3246Z" fill="#40A578"/>
<path d="M16.3518 6.99126C12.8278 3.49271 7.91388 2.3101 3.39709 3.39416L19.9256 19.8029C21.0672 15.3681 19.8759 10.4405 16.3518 6.99126Z" fill="#9DDE8B"/>
<path d="M19.9752 19.8029L3.39711 3.39417C2.30514 7.82895 3.49638 12.7565 7.02047 16.255C10.4949 19.7536 15.4584 20.9362 19.9752 19.8029Z" fill="#40A578"/>
<path d="M23.6482 6.99125C27.1722 3.4927 32.0861 2.31009 36.6029 3.44342L20.0248 19.8028C18.9328 15.3681 20.1241 10.4405 23.6482 6.99125Z" fill="#9DDE8B"/>
<path d="M20.0248 19.8029L36.6029 3.44348C37.6949 7.87826 36.5036 12.8058 33.0292 16.3044C29.5051 19.7536 24.5416 20.9362 20.0248 19.8029Z" fill="#40A578"/>
</svg>
