<svg width="40" height="40" viewBox="0 0 40 40" fill="none" xmlns="http://www.w3.org/2000/svg">
<g clip-path="url(#clip0_240_1920)">
<path d="M40 20L33.6516 16.3246L37.327 9.97613H29.9761V2.67303L23.6277 6.34845L20 0L16.3246 6.34845L9.97613 2.67303V9.97613H2.67303L6.34845 16.3246L0 20L6.34845 23.6754L2.67303 29.9761H9.97613V37.327L16.3246 33.6516L20 40L23.6277 33.6516L29.9761 37.327V29.9761H37.327L33.6516 23.6754L40 20Z" fill="#9DDE8B"/>
<path d="M24.4392 9.83289C25.2984 11.4081 25.7757 13.1742 25.7757 15.0835C25.5556 21.1111 21.1111 25.5555 14.654 26.2052C13.0788 26.2052 11.5514 25.8711 10.2148 25.2505C12.0764 28.735 15.7518 31.1217 20 31.1217C26.1098 31.1217 31.1218 26.1575 31.1218 19.9999C31.074 15.4653 28.3533 11.5513 24.4392 9.83289Z" fill="#006769"/>
<path d="M25.7757 15.0835C25.7757 13.1742 25.2983 11.4081 24.4392 9.83295C23.0549 9.21242 21.5752 8.8783 20 8.8783C13.8425 8.8783 8.8783 13.8425 8.8783 20C8.8783 21.9093 9.35562 23.6754 10.2148 25.2506C11.5991 25.8711 13.0788 26.2053 14.654 26.2053C20.7637 26.1575 25.7757 21.1933 25.7757 15.0835Z" fill="#40A578"/>
</g>
<defs>
<clipPath id="clip0_240_1920">
<rect width="40" height="40" fill="white"/>
</clipPath>
</defs>
</svg>
