<svg width="80" height="80" viewBox="0 0 80 80" fill="none" xmlns="http://www.w3.org/2000/svg">
<g clip-path="url(#clip0_226_973)">
<path d="M80 0H0V80H80V0Z" fill="#DC007A"/>
<path d="M6.96885 9.96476C6.57392 10.1491 6.16789 10.3085 5.75312 10.4423L4.75443 10.7897V8.61877C5.28849 8.39324 5.81019 8.13952 6.31746 7.85885C6.79139 7.61786 7.22385 7.30274 7.59838 6.92535H9.76935V22.1221H6.8602L6.96885 9.96476Z" fill="white"/>
<path d="M16.5862 18.0189V11.289C16.6041 10.8091 16.5304 10.3301 16.369 9.87784C16.3063 9.69699 16.1841 9.54281 16.0225 9.4403C15.8608 9.33779 15.6693 9.29311 15.4789 9.3135C15.2854 9.28915 15.0891 9.32899 14.9204 9.42705C14.7518 9.52512 14.6201 9.67597 14.5454 9.85624C14.4007 10.3196 14.3346 10.8038 14.35 11.289V18.0189C14.35 19.2781 14.7191 19.9077 15.4789 19.9077C16.2388 19.9077 16.5862 19.2781 16.5862 18.0189ZM12.4395 21.2754C11.7088 20.369 11.3378 19.2251 11.3975 18.0624V11.2238C11.3275 10.0468 11.6819 8.88385 12.3962 7.94578C12.7888 7.52988 13.2693 7.20679 13.8026 7.00022C14.3359 6.79365 14.9086 6.7087 15.4789 6.75164C16.0429 6.70744 16.6095 6.79205 17.1361 6.9989C17.6626 7.20574 18.1351 7.52953 18.5182 7.94578C19.2492 8.8762 19.6125 10.0429 19.5386 11.2238V18.0624C19.5942 19.2246 19.2237 20.3671 18.4966 21.2754C17.686 22.0644 16.5993 22.506 15.4681 22.506C14.3368 22.506 13.2502 22.0644 12.4395 21.2754Z" fill="white"/>
<path d="M26.616 9.44372H26.9633C27.1201 9.48323 27.2843 9.48323 27.441 9.44372C27.5043 9.41753 27.5618 9.37912 27.6102 9.33069C27.6586 9.28226 27.6971 9.22476 27.7232 9.16148C27.7489 8.99603 27.7489 8.82752 27.7232 8.66207C27.7426 8.42747 27.6896 8.19258 27.5713 7.98908C27.4879 7.90997 27.3886 7.84977 27.28 7.81232C27.1714 7.77486 27.056 7.76109 26.9416 7.77203H26.5508L26.616 9.44372ZM25.5523 12.7652V6.94706H26.9633C27.3008 6.94046 27.6375 6.98436 27.962 7.07731C28.2104 7.16751 28.4234 7.33496 28.5698 7.55499C28.7306 7.83876 28.806 8.1629 28.787 8.48849C28.8107 8.69768 28.8107 8.90883 28.787 9.11802C28.7548 9.29258 28.6801 9.45651 28.5698 9.59557C28.4575 9.7367 28.3068 9.8423 28.1357 9.89954L28.9607 12.7652H27.8968L27.1805 10.095H26.6811V12.7652H25.5523Z" fill="white"/>
<path d="M29.3948 12.787V6.94708H31.848V7.68521H30.4803V9.37856H31.5658V10.1167H30.4803V12.0488H31.8697V12.787H29.3948Z" fill="white"/>
<path d="M33.3677 12.0272H33.6934C33.8768 12.0431 34.0601 11.9973 34.2144 11.897C34.3243 11.8035 34.3942 11.6713 34.4097 11.5278C34.4218 11.3254 34.4218 11.1225 34.4097 10.92V8.74905C34.4359 8.56181 34.4359 8.37182 34.4097 8.18458C34.3824 8.05194 34.3046 7.93509 34.1927 7.85888C34.0291 7.81563 33.857 7.81563 33.6934 7.85888H33.3894L33.3677 12.0272ZM32.2822 12.7653V6.94711H33.6717C34.0507 6.92797 34.4293 6.99482 34.7789 7.14256C35.0322 7.26267 35.2328 7.47101 35.3432 7.72863C35.4645 8.05487 35.5235 8.40105 35.5169 8.74905V10.92C35.5231 11.2751 35.4642 11.6282 35.3432 11.962C35.2418 12.2359 35.0401 12.4609 34.7789 12.5916C34.4439 12.7372 34.0799 12.8041 33.715 12.787L32.2822 12.7653Z" fill="white"/>
<path d="M37.7096 12.852C37.3607 12.8697 37.014 12.7869 36.7109 12.6133C36.47 12.4552 36.293 12.2167 36.2116 11.9403C36.1188 11.6009 36.0749 11.25 36.0814 10.8983V6.94708H37.0366V11.0068C37.024 11.1802 37.024 11.3543 37.0366 11.5278C37.0581 11.6713 37.1182 11.8064 37.2103 11.9185C37.2621 11.9685 37.3233 12.0077 37.3904 12.0338C37.4575 12.0599 37.5291 12.0724 37.6011 12.0705C37.6765 12.0741 37.7519 12.0624 37.8228 12.0363C37.8936 12.0102 37.9585 11.9702 38.0136 11.9185C38.0973 11.8014 38.1564 11.6685 38.1873 11.5278C38.1991 11.3543 38.1991 11.1803 38.1873 11.0068V6.94708H39.2293V10.8983C39.2358 11.25 39.1919 11.6009 39.099 11.9403C39.0098 12.2127 38.8345 12.4489 38.5996 12.6133C38.2884 12.7864 37.9351 12.8691 37.5793 12.852" fill="white"/>
<path d="M41.574 12.852C41.2251 12.8697 40.8785 12.7868 40.5753 12.6132C40.3378 12.4373 40.1567 12.1958 40.0543 11.9185C39.9641 11.5934 39.9202 11.2573 39.9241 10.9199V8.74897C39.916 8.39711 39.9599 8.04589 40.0543 7.70682C40.1446 7.42881 40.3288 7.19088 40.5753 7.03383C40.8749 6.85143 41.2243 6.76792 41.574 6.79505C41.9038 6.77841 42.2325 6.84569 42.5292 6.9905C42.7447 7.13234 42.9114 7.33687 43.0068 7.57657C43.1152 7.86047 43.1668 8.16295 43.1588 8.46674V8.96602H42.1383V8.44501C42.1501 8.30051 42.1501 8.15528 42.1383 8.01079C42.1405 7.95043 42.13 7.89036 42.1076 7.83429C42.0852 7.77822 42.0513 7.72746 42.0081 7.68522C42.0081 7.68522 41.8127 7.68522 41.6173 7.68522C41.4901 7.64522 41.3538 7.64522 41.2266 7.68522C41.1414 7.78264 41.0884 7.90387 41.0746 8.03252C41.052 8.19092 41.052 8.35166 41.0746 8.51007V11.0502C41.0601 11.2236 41.0601 11.3978 41.0746 11.5712C41.1074 11.69 41.1756 11.796 41.27 11.8752C41.3699 11.9502 41.4925 11.9886 41.6173 11.9837C41.688 11.991 41.7594 11.9832 41.8268 11.9608C41.8942 11.9383 41.956 11.9017 42.0081 11.8534C42.077 11.7569 42.1217 11.6452 42.1383 11.5277C42.15 11.3687 42.15 11.2092 42.1383 11.0502V10.5292H43.1588V11.0067C43.1669 11.3176 43.1153 11.6271 43.0068 11.9185C42.9269 12.1782 42.7578 12.4013 42.5292 12.5482C42.2392 12.7131 41.9069 12.7885 41.574 12.7652" fill="white"/>
<path d="M43.7232 12.787V6.94708H46.1547V7.68521H44.787V9.37856H45.8725V10.1167H44.787V12.0488H46.1764V12.787H43.7232Z" fill="white"/>
<path d="M47.6744 12.0272H48C48.1833 12.0431 48.3667 11.9973 48.521 11.897C48.6309 11.8035 48.7009 11.6713 48.7164 11.5278C48.7285 11.3254 48.7285 11.1225 48.7164 10.92V8.74905C48.7426 8.56181 48.7426 8.37182 48.7164 8.18458C48.7067 8.11758 48.6822 8.05354 48.6446 7.99721C48.6071 7.94089 48.5575 7.89363 48.4994 7.85888C48.336 7.81354 48.1633 7.81354 48 7.85888H47.696L47.6744 12.0272ZM46.6105 12.7653V6.94711H47.8915C48.2705 6.92797 48.6491 6.99482 48.9987 7.14256C49.2519 7.26267 49.4527 7.47101 49.5631 7.72863C49.6844 8.05487 49.7432 8.40105 49.7367 8.74905V10.92C49.7429 11.2751 49.6842 11.6282 49.5631 11.962C49.516 12.0994 49.4416 12.226 49.3446 12.3341C49.2477 12.4422 49.1301 12.5297 48.9987 12.5916C48.6637 12.7372 48.2998 12.8041 47.9349 12.787L46.6105 12.7653Z" fill="white"/>
<path d="M26.6377 16.4776H25.5957V22.3175H26.6377V16.4776Z" fill="white"/>
<path d="M27.3541 22.3175V16.4776H28.114L29.5251 19.7992V16.4776H30.3935V22.3175H29.6988L28.2659 18.8222V22.3175H27.3541Z" fill="white"/>
<path d="M31.0882 22.3175V16.4776H33.5414V17.2157H32.1737V18.9091H33.2592V19.6472H32.1737V21.5794H33.5631V22.3175H31.0882Z" fill="white"/>
<path d="M35.5604 21.601C35.6344 21.6088 35.7093 21.6012 35.7802 21.5788C35.8512 21.5564 35.9168 21.5196 35.9729 21.4708C36.0604 21.3895 36.121 21.2835 36.1466 21.1668C36.1584 21.0223 36.1584 20.8771 36.1466 20.7326V18.0406C36.1596 17.8962 36.1596 17.7509 36.1466 17.6064C36.121 17.4898 36.0604 17.3838 35.9729 17.3026C35.9168 17.2537 35.8512 17.217 35.7802 17.1946C35.7093 17.1722 35.6344 17.1646 35.5604 17.1723C35.4898 17.1663 35.4188 17.1747 35.3516 17.1971C35.2844 17.2195 35.2225 17.2554 35.1697 17.3026C35.089 17.3859 35.0359 17.4919 35.0177 17.6064C34.9942 17.7502 34.9942 17.8969 35.0177 18.0406V20.7326C34.9953 20.8765 34.9953 21.023 35.0177 21.1668C35.0359 21.2813 35.089 21.3875 35.1697 21.4708C35.2225 21.5179 35.2844 21.5537 35.3516 21.5761C35.4188 21.5985 35.4898 21.607 35.5604 21.601ZM36.8196 23.468L36.4505 23.2075L36.038 22.8168L35.6907 22.3826H35.5604C35.2187 22.3973 34.8798 22.3145 34.5835 22.1438C34.3431 21.9897 34.16 21.7609 34.0624 21.4925C33.9449 21.1653 33.8861 20.8198 33.8887 20.4721V18.3011C33.8839 17.9603 33.9428 17.6217 34.0624 17.3026C34.16 17.0342 34.3431 16.8053 34.5835 16.6512C34.8821 16.488 35.2208 16.4128 35.5604 16.4341C35.9071 16.411 36.2533 16.4862 36.5591 16.6512C36.8111 16.7976 37.0033 17.0283 37.1018 17.3026C37.2136 17.6233 37.265 17.9617 37.2537 18.3011V20.4721C37.2882 20.7242 37.2882 20.9799 37.2537 21.232C37.2123 21.4446 37.1232 21.6449 36.9932 21.8181C36.872 21.9805 36.7164 22.1141 36.5374 22.209L36.7327 22.4043L36.9281 22.6213L37.1234 22.7517L36.8196 23.468Z" fill="white"/>
<path d="M39.4681 22.3826C39.1123 22.3997 38.759 22.317 38.4478 22.1438C38.2068 21.9858 38.0298 21.7473 37.9484 21.4709C37.8555 21.1241 37.8116 20.766 37.8181 20.4071V16.4777H38.8603V20.5156C38.8495 20.6891 38.8495 20.8631 38.8603 21.0366C38.8818 21.1802 38.9417 21.3152 39.0339 21.4274C39.09 21.4762 39.1557 21.513 39.2266 21.5354C39.2976 21.5578 39.3723 21.5654 39.4463 21.5576C39.5169 21.5636 39.588 21.5553 39.6552 21.5329C39.7224 21.5105 39.7842 21.4745 39.8371 21.4274C39.9292 21.3152 39.9893 21.1802 40.0108 21.0366C40.0216 20.8631 40.0216 20.6891 40.0108 20.5156V16.4559H41.0312V20.5156C41.0377 20.8746 40.9939 21.2326 40.901 21.5794C40.8196 21.8558 40.6425 22.0943 40.4016 22.2524C40.0984 22.426 39.7519 22.5088 39.403 22.4911" fill="white"/>
<path d="M42.768 20.2768H43.5495L43.137 17.8236L42.768 20.2768ZM41.422 22.2958L42.5943 16.4777H43.7232L44.8955 22.2958H43.8968L43.6798 20.9498H42.6595L42.4206 22.2958H41.422Z" fill="white"/>
<path d="M45.2646 22.3175V16.4776H46.3284V21.5794H47.7395V22.3175H45.2646Z" fill="white"/>
<path d="M49.1506 16.4776H48.1086V22.3175H49.1506V16.4776Z" fill="white"/>
<path d="M50.4532 22.3175V17.2591H49.5414V16.4776H52.4505V17.2591H51.517V22.3175H50.4532Z" fill="white"/>
<path d="M53.8616 16.4776H52.8195V22.3175H53.8616V16.4776Z" fill="white"/>
<path d="M54.578 22.3175V16.4776H57.0312V17.2157H55.6418V18.9091H56.7273V19.6472H55.6418V21.5794H57.0312V22.3175H54.578Z" fill="white"/>
<path d="M58.9417 22.3826C58.6305 22.3958 58.3218 22.3205 58.0516 22.1656C57.8146 22.0373 57.6302 21.8298 57.5306 21.5794C57.393 21.2717 57.3192 20.9394 57.3135 20.6024L58.247 20.4289C58.2234 20.6235 58.2234 20.8203 58.247 21.0149C58.288 21.1668 58.3621 21.3077 58.4641 21.4274C58.5655 21.5171 58.6978 21.5639 58.8331 21.5577C58.9026 21.5678 58.9735 21.5591 59.0385 21.5324C59.1034 21.5056 59.1601 21.4618 59.2022 21.4057C59.2363 21.2776 59.2363 21.143 59.2022 21.0149C59.2077 20.7925 59.1472 20.5736 59.0285 20.3854C58.9001 20.2053 58.7465 20.0444 58.5726 19.9077L57.8345 19.2564C57.6325 19.0859 57.4632 18.88 57.3351 18.6486C57.2146 18.3984 57.1552 18.1231 57.1615 17.8454C57.1483 17.6506 57.1762 17.4551 57.2436 17.2718C57.3109 17.0885 57.4161 16.9215 57.5523 16.7816C57.8599 16.5203 58.2566 16.3879 58.6595 16.4125C58.8896 16.3752 59.1242 16.3752 59.3542 16.4125C59.5266 16.4987 59.6755 16.6254 59.7883 16.7816C59.8978 16.9321 59.9789 17.1013 60.0272 17.2809C60.0498 17.4829 60.0498 17.6867 60.0272 17.8887L59.1371 18.0407V17.5414C59.106 17.4206 59.0464 17.3089 58.9633 17.2157C58.9187 17.1697 58.8644 17.1342 58.8043 17.1117C58.7443 17.0892 58.68 17.0802 58.616 17.0855C58.5476 17.0853 58.4797 17.0986 58.4164 17.1247C58.353 17.1508 58.2955 17.1891 58.247 17.2375C58.1655 17.3507 58.1269 17.4892 58.1384 17.6282C58.1224 17.7949 58.1606 17.9624 58.247 18.1059C58.3439 18.2518 58.4608 18.3833 58.5943 18.4967L59.3325 19.1479C59.574 19.3508 59.7795 19.593 59.9403 19.8644C60.1233 20.1564 60.2141 20.4969 60.2008 20.8413C60.2026 21.0977 60.1432 21.3507 60.0272 21.5794C59.8996 21.7937 59.7204 21.9728 59.5061 22.1004C59.2698 22.2166 59.0096 22.2761 58.7463 22.2741" fill="white"/>
<path d="M47.4139 52.4938H32.6947C32.6525 52.4992 32.6137 52.5199 32.5856 52.5519C32.5576 52.5839 32.5424 52.625 32.5427 52.6675V57.0095C32.5396 57.0312 32.5411 57.0532 32.5473 57.0743C32.5536 57.0953 32.5643 57.1147 32.5788 57.1312C32.5932 57.1477 32.6111 57.161 32.6311 57.1699C32.6511 57.1789 32.6728 57.1834 32.6947 57.1832H47.4355C47.4815 57.1832 47.5257 57.1649 47.5583 57.1323C47.5909 57.0997 47.6092 57.0555 47.6092 57.0095V52.6675C47.6045 52.6231 47.5846 52.5816 47.553 52.55C47.5214 52.5184 47.4799 52.4986 47.4355 52.4938" fill="white"/>
<path d="M47.4139 43.072H32.6947C32.6525 43.0773 32.6137 43.0979 32.5856 43.1299C32.5576 43.1619 32.5424 43.203 32.5427 43.2455V47.5875C32.5396 47.6092 32.5411 47.6314 32.5473 47.6524C32.5536 47.6734 32.5643 47.6929 32.5788 47.7094C32.5932 47.7259 32.6111 47.739 32.6311 47.7479C32.6511 47.7569 32.6728 47.7614 32.6947 47.7612H47.4355C47.4815 47.7612 47.5257 47.7429 47.5583 47.7103C47.5909 47.6777 47.6092 47.6335 47.6092 47.5875V43.2455C47.6045 43.2011 47.5846 43.1596 47.553 43.128C47.5214 43.0964 47.4799 43.0767 47.4355 43.072" fill="white"/>
<path d="M47.1967 36.3853L40.1411 29.308C40.1172 29.2866 40.0864 29.2748 40.0543 29.2748C40.0223 29.2748 39.9913 29.2866 39.9674 29.308L32.8902 36.3853V36.5808H47.023C47.1316 36.5808 47.1967 36.4505 47.023 36.3853" fill="white"/>
<path d="M53.8399 57.422L60.9172 50.2578C60.9386 50.234 60.9504 50.203 60.9504 50.1709C60.9504 50.1389 60.9386 50.108 60.9172 50.0841L53.8399 43.0068C53.831 42.9884 53.8171 42.9729 53.7999 42.9621C53.7826 42.9513 53.7626 42.9456 53.7422 42.9456C53.7218 42.9456 53.7019 42.9513 53.6846 42.9621C53.6673 42.9729 53.6535 42.9884 53.6446 43.0068V57.1615C53.6535 57.1798 53.6673 57.1953 53.6846 57.2062C53.7019 57.217 53.7218 57.2227 53.7422 57.2227C53.7626 57.2227 53.7826 57.217 53.7999 57.2062C53.8171 57.1953 53.831 57.1798 53.8399 57.1615" fill="white"/>
<path d="M32.8902 63.9349L39.9674 70.9905H40.1411L47.2185 63.9349C47.2364 63.923 47.2511 63.9069 47.2613 63.888C47.2714 63.869 47.2768 63.8479 47.2768 63.8264C47.2768 63.8049 47.2714 63.7837 47.2613 63.7647C47.2511 63.7458 47.2364 63.7297 47.2185 63.7178H33.0637C33.0458 63.7297 33.0311 63.7458 33.0209 63.7647C33.0108 63.7837 33.0056 63.8049 33.0056 63.8264C33.0056 63.8479 33.0108 63.869 33.0209 63.888C33.0311 63.9069 33.0458 63.923 33.0637 63.9349" fill="white"/>
<path d="M26.1818 43.0068L19.1262 50.0841V50.2579L26.1818 57.422C26.1937 57.4399 26.2098 57.4546 26.2287 57.4648C26.2477 57.475 26.2688 57.4803 26.2903 57.4803C26.3118 57.4803 26.333 57.475 26.352 57.4648C26.3709 57.4546 26.387 57.4399 26.3989 57.422V43.0937C26.387 43.0758 26.3709 43.0611 26.352 43.0509C26.333 43.0407 26.3118 43.0354 26.2903 43.0354C26.2688 43.0354 26.2477 43.0407 26.2287 43.0509C26.2098 43.0611 26.1937 43.0758 26.1818 43.0937" fill="white"/>
</g>
<defs>
<clipPath id="clip0_226_973">
<rect width="80" height="80" fill="white"/>
</clipPath>
</defs>
</svg>
