<svg width="80" height="80" viewBox="0 0 80 80" fill="none" xmlns="http://www.w3.org/2000/svg">
<g clip-path="url(#clip0_226_1002)">
<path d="M80 0H0V80H80V0Z" fill="#970B31"/>
<path d="M11.4191 12.3745C11.4389 11.9256 11.3495 11.4786 11.1586 11.0719C11.0864 10.9222 10.9718 10.7971 10.829 10.7122C10.6861 10.6273 10.5214 10.5863 10.3554 10.5943C10.1863 10.5848 10.0181 10.6249 9.87149 10.7098C9.72491 10.7946 9.60637 10.9205 9.53042 11.0719C9.32107 11.4729 9.22357 11.9228 9.24818 12.3745C9.24818 13.9593 9.61727 14.7408 10.3554 14.7408C11.0935 14.7408 11.4191 13.9593 11.4191 12.3745ZM11.4191 21.2537C11.6069 20.7095 11.6951 20.1359 11.6797 19.5604C11.7038 18.956 11.6155 18.3523 11.4191 17.7802C11.3595 17.5721 11.2296 17.3913 11.0514 17.2686C10.8732 17.1458 10.6579 17.0887 10.4423 17.1072C10.2246 17.0917 10.008 17.1496 9.82697 17.2715C9.64597 17.3935 9.51098 17.5726 9.44363 17.7802C9.27025 18.3572 9.18967 18.9581 9.20486 19.5604C9.19373 20.1339 9.27432 20.7056 9.44363 21.2537C9.51486 21.4573 9.65149 21.6315 9.83213 21.7494C10.0128 21.8672 10.2273 21.9219 10.4423 21.905C10.6544 21.9207 10.8656 21.8651 11.0426 21.7472C11.2195 21.6292 11.3521 21.4555 11.4191 21.2537ZM6.3609 19.4518C6.3543 18.706 6.50203 17.9668 6.79499 17.2809C7.07767 16.6817 7.55114 16.193 8.1411 15.8914C7.65481 15.5387 7.26627 15.0681 7.01216 14.5237C6.69377 13.8459 6.54475 13.1009 6.57794 12.3528C6.5451 11.826 6.61648 11.298 6.78783 10.7989C6.95918 10.2997 7.22721 9.83918 7.57663 9.44367C8.36755 8.75348 9.38173 8.37323 10.4315 8.37323C11.4812 8.37323 12.4954 8.75348 13.2863 9.44367C13.9766 10.2415 14.3272 11.278 14.2631 12.3311C14.2917 13.0766 14.1507 13.819 13.8506 14.5021C13.598 15.035 13.2178 15.4974 12.7435 15.848C13.3346 16.1618 13.8015 16.667 14.0678 17.2809C14.3875 18.0126 14.5431 18.8055 14.5237 19.6038C14.5956 20.7843 14.2498 21.9525 13.5468 22.9037C13.1547 23.3264 12.6711 23.6538 12.133 23.8608C11.5948 24.0677 11.0166 24.1488 10.4423 24.0977C7.70691 24.0977 6.3609 22.5563 6.3609 19.4735" fill="white"/>
<path d="M21.5142 13.6771C21.6911 13.6972 21.869 13.6507 22.0135 13.5468C22.1211 13.4663 22.1978 13.3514 22.2307 13.2212C22.2461 13.0044 22.2461 12.7867 22.2307 12.5698V10.3989C22.2598 10.2046 22.2598 10.007 22.2307 9.81275C22.225 9.7501 22.2042 9.68976 22.1701 9.63685C22.1361 9.58393 22.0899 9.53998 22.0352 9.50878C21.8644 9.46466 21.6851 9.46466 21.5142 9.50878H21.2103V13.8507L21.5142 13.6771ZM20.1248 8.59701H21.5142C21.8916 8.57248 22.2697 8.63176 22.6214 8.77066C22.8854 8.88277 23.0955 9.09288 23.2076 9.3568C23.3327 9.68957 23.3916 10.0435 23.3812 10.3989V12.5698C23.3911 12.9322 23.3323 13.2932 23.2076 13.6336C23.0993 13.9032 22.8994 14.1261 22.6432 14.2632C22.3004 14.4084 21.9296 14.4752 21.5577 14.4586H20.1465L20.1248 8.59701Z" fill="white"/>
<path d="M23.9891 8.59705H26.4423V9.33517H25.0529V11.0285H26.1384V11.7667H25.0529V13.6988H26.4423V14.4152H23.9891V8.59705Z" fill="white"/>
<path d="M27.1587 14.0027C26.8907 13.5666 26.762 13.0592 26.7897 12.5481V10.4857C26.7563 9.9741 26.8854 9.46497 27.1587 9.03116C27.3202 8.84997 27.5228 8.71012 27.7494 8.62325C27.976 8.53637 28.2202 8.50505 28.4614 8.53188C28.6838 8.5058 28.9092 8.53137 29.1201 8.60668C29.3309 8.68199 29.5216 8.80497 29.6771 8.96604C29.9357 9.32441 30.0587 9.76291 30.0244 10.2035V10.6811H29.0041V10.1818C29.0171 10.0228 29.0171 9.8631 29.0041 9.70416C28.9989 9.64935 28.9828 9.5962 28.9567 9.54773C28.9306 9.49926 28.895 9.45651 28.8521 9.42199C28.8033 9.37544 28.7452 9.33976 28.6816 9.31731C28.618 9.29486 28.5503 9.28608 28.4831 9.29167C28.4125 9.28568 28.3415 9.29418 28.2743 9.31658C28.2071 9.33897 28.1452 9.37486 28.0923 9.42199C28.0052 9.51223 27.945 9.62501 27.9186 9.74762C27.9049 9.91378 27.9049 10.0807 27.9186 10.2469V12.787C27.9025 13.0328 27.9472 13.2789 28.0489 13.5033C28.105 13.5755 28.1777 13.6329 28.2609 13.6708C28.3441 13.7086 28.4352 13.7256 28.5264 13.7205C28.6617 13.7266 28.7942 13.6799 28.8956 13.5902C28.9763 13.5069 29.0292 13.4008 29.0474 13.2863C29.0609 13.1201 29.0609 12.9531 29.0474 12.787V12.2659H30.0679V12.7218C30.0979 13.1892 29.9762 13.6537 29.7206 14.0461C29.5661 14.2097 29.3762 14.3359 29.1655 14.4149C28.9548 14.4939 28.7287 14.5237 28.5047 14.502C28.2639 14.5237 28.0213 14.4899 27.7955 14.4034C27.5698 14.3168 27.3668 14.1798 27.2022 14.0027" fill="white"/>
<path d="M30.5889 8.59705H33.0421V9.33517H31.6526V11.0285H32.7381V11.7667H31.6526V13.6988H33.0421V14.4152H30.5889V8.59705Z" fill="white"/>
<path d="M33.4763 8.59705H34.2144L35.6472 11.9186V8.59705H36.5156V14.4152H35.8209L34.3881 10.9417V14.4152H33.4763V8.59705Z" fill="white"/>
<path d="M37.7965 9.37859H36.8195V8.59705H39.7938V9.37859H38.8385V14.4152H37.7965V9.37859Z" fill="white"/>
<path d="M41.4437 8.59705H42.3121L42.8114 12.3745L43.4193 8.59705H44.1357L44.7436 12.3745L45.2212 8.59705H46.1113L45.2863 14.4152H44.4396L43.7883 10.5075L43.137 14.4152H42.2469L41.4437 8.59705Z" fill="white"/>
<path d="M48.6295 13.4817C48.6741 13.2742 48.6741 13.0596 48.6295 12.8521V10.1601C48.6717 9.94508 48.6717 9.72386 48.6295 9.5088C48.5747 9.4352 48.5022 9.3767 48.4187 9.33873C48.3352 9.30077 48.2434 9.28456 48.152 9.29169C48.0576 9.2794 47.9617 9.29559 47.8766 9.33814C47.7915 9.38068 47.7211 9.44769 47.6743 9.53053C47.5741 9.72454 47.5291 9.94231 47.544 10.1601V12.8521C47.5291 13.0699 47.5741 13.2877 47.6743 13.4817C47.7211 13.5646 47.7915 13.6316 47.8766 13.6741C47.9617 13.7166 48.0576 13.7328 48.152 13.7205C48.246 13.73 48.3408 13.7126 48.4253 13.6703C48.5099 13.6281 48.5807 13.5626 48.6295 13.4817ZM46.8493 14.0027C46.5596 13.5918 46.4215 13.093 46.4586 12.5916V10.4206C46.4215 9.9192 46.5596 9.42046 46.8493 9.00952C47.0198 8.84278 47.2249 8.7155 47.45 8.63672C47.675 8.55794 47.9147 8.52954 48.152 8.55357C48.3858 8.5313 48.6217 8.5606 48.843 8.63937C49.0643 8.71814 49.2656 8.84451 49.4328 9.00952C49.7225 9.42046 49.8606 9.9192 49.8235 10.4206V12.5916C49.8606 13.093 49.7225 13.5918 49.4328 14.0027C49.2714 14.1781 49.0721 14.3142 48.8501 14.4008C48.6281 14.4873 48.3894 14.522 48.152 14.5021C47.9111 14.5237 47.6686 14.49 47.4428 14.4034C47.217 14.3169 47.014 14.1798 46.8493 14.0027Z" fill="white"/>
<path d="M51.9077 11.0936C52.0253 11.1024 52.1434 11.0876 52.2552 11.0504C52.367 11.0131 52.4702 10.954 52.559 10.8765C52.6891 10.6773 52.7501 10.4408 52.7327 10.2035C52.7582 9.96854 52.7047 9.73175 52.5807 9.53053C52.5025 9.45066 52.4071 9.38959 52.3018 9.35198C52.1965 9.31437 52.0841 9.3012 51.9729 9.31342H51.5604V11.0936H51.9077ZM50.5183 8.59703H51.9077C52.3968 8.55232 52.8867 8.67478 53.2972 8.94439C53.4632 9.0924 53.5912 9.2781 53.6706 9.48587C53.7499 9.69365 53.7781 9.91741 53.753 10.1384C53.7633 10.4444 53.7041 10.7488 53.5794 11.0285C53.4663 11.2691 53.2638 11.456 53.0149 11.5495L53.8399 14.4152H52.7762L51.9077 11.8317H51.3867V14.5021H50.3447L50.5183 8.59703Z" fill="white"/>
<path d="M54.2741 8.59705H55.3378V11.1588L56.4885 8.59705H57.5088L56.4016 11.1805L57.6174 14.4152H56.5536L55.5984 11.7667L55.3378 12.2226V14.4152H54.2741V8.59705Z" fill="white"/>
<path d="M61.3298 12.3962L60.9389 9.94303L60.5264 12.3962H61.3298ZM60.3528 8.59705H61.4816L62.654 14.4152H61.6771L61.4383 13.0692H60.4179L60.1791 14.4152H59.1804L60.3528 8.59705Z" fill="white"/>
<path d="M63.0448 8.59705H63.7829L65.2157 11.9186V8.59705H66.0841V14.4152H65.3894L63.9566 10.9417V14.4152H63.0448V8.59705Z" fill="white"/>
<path d="M68.1682 13.6771C68.3516 13.693 68.5349 13.6472 68.6892 13.5468C68.7433 13.5098 68.7888 13.4615 68.8225 13.4053C68.8563 13.3491 68.8774 13.2863 68.8847 13.2212C68.911 13.0049 68.911 12.7862 68.8847 12.5699V10.3989C68.9112 10.2044 68.9112 10.0073 68.8847 9.81277C68.8708 9.75013 68.8443 9.69088 68.807 9.63866C68.7697 9.58644 68.7223 9.54228 68.6675 9.50881C68.5038 9.46652 68.332 9.46652 68.1682 9.50881H67.8427V13.8507L68.1682 13.6771ZM66.7788 8.59704H68.1682C68.5455 8.57461 68.9232 8.63382 69.2754 8.77069C69.5287 8.8908 69.7294 9.0992 69.8399 9.35682C69.965 9.68959 70.024 10.0436 70.0136 10.3989V12.5699C70.0235 12.9323 69.9646 13.2932 69.8399 13.6336C69.7315 13.9033 69.5317 14.1261 69.2754 14.2632C68.9405 14.4088 68.5766 14.4757 68.2117 14.4586H66.7788V8.59704Z" fill="white"/>
<path d="M20.1682 18.1276H22.6214V18.8657H21.232V20.5373H22.3175V21.2755H21.232V23.2293H22.6214V23.9457H20.1682V18.1276Z" fill="white"/>
<path d="M23.3812 23.5115C23.111 23.0844 22.9819 22.5832 23.0122 22.0787V19.9077C22.9845 19.3966 23.1132 18.8892 23.3812 18.4531C23.5438 18.2734 23.7465 18.1345 23.9728 18.0477C24.1992 17.961 24.4428 17.9288 24.6839 17.9539C24.906 17.9326 25.1299 17.9604 25.34 18.0354C25.5501 18.1105 25.7412 18.2308 25.8996 18.388C26.1548 18.7562 26.2772 19.2003 26.2469 19.6472V20.1248H25.2266V19.6255C25.2396 19.4665 25.2396 19.3068 25.2266 19.1479C25.213 19.0319 25.1592 18.9244 25.0746 18.844C24.9551 18.8026 24.825 18.8026 24.7055 18.844C24.6349 18.838 24.5639 18.8464 24.4968 18.8688C24.4296 18.8912 24.3676 18.9271 24.3147 18.9742C24.2204 19.0499 24.1585 19.1585 24.1411 19.2781C24.1266 19.4515 24.1266 19.6258 24.1411 19.7992V22.3175C24.1201 22.5636 24.165 22.8109 24.2714 23.0339C24.322 23.1131 24.3931 23.1771 24.4771 23.2192C24.5612 23.2612 24.6552 23.2797 24.7489 23.2727C24.8842 23.2789 25.0165 23.2322 25.1179 23.1424C25.1986 23.0591 25.2517 22.9531 25.2699 22.8385C25.2829 22.6723 25.2829 22.5054 25.2699 22.3392V21.8182H26.2903V22.2741C26.3157 22.7341 26.194 23.1903 25.9429 23.5767C25.7938 23.7483 25.6054 23.8814 25.3937 23.9646C25.182 24.0477 24.9533 24.0785 24.7272 24.0543C24.4842 24.0785 24.2389 24.0437 24.0122 23.953C23.7854 23.8623 23.5839 23.7184 23.4247 23.5333" fill="white"/>
<path d="M28.9171 23.0122C29.017 22.8103 29.062 22.5857 29.0474 22.3609V19.6906C29.06 19.4659 29.0151 19.2418 28.9171 19.0393C28.858 18.9705 28.7848 18.9153 28.7023 18.8774C28.6199 18.8395 28.5303 18.8199 28.4396 18.8199C28.3488 18.8199 28.2592 18.8395 28.1768 18.8774C28.0944 18.9153 28.021 18.9705 27.9619 19.0393C27.8638 19.2418 27.819 19.4659 27.8316 19.6906V22.3609C27.817 22.5857 27.862 22.8103 27.9619 23.0122C28.0188 23.0844 28.0914 23.1429 28.1742 23.183C28.2569 23.2232 28.3476 23.244 28.4396 23.244C28.5315 23.244 28.6222 23.2232 28.705 23.183C28.7877 23.1429 28.8602 23.0844 28.9171 23.0122ZM27.137 23.5332C26.8473 23.1223 26.7091 22.6235 26.7461 22.1221V19.9511C26.7091 19.4497 26.8473 18.9509 27.137 18.54C27.3065 18.3706 27.5106 18.2401 27.7356 18.1576C27.9605 18.0752 28.2008 18.0426 28.4396 18.0624C28.6752 18.0413 28.9125 18.0733 29.1342 18.156C29.3558 18.2386 29.5562 18.3698 29.7205 18.54C30.0102 18.9509 30.1483 19.4497 30.1112 19.9511V22.1221C30.1483 22.6235 30.0102 23.1223 29.7205 23.5332C29.5592 23.7086 29.3599 23.8447 29.1379 23.9312C28.9159 24.0178 28.677 24.0524 28.4396 24.0325C28.1987 24.0542 27.9562 24.0204 27.7304 23.9339C27.5046 23.8473 27.3017 23.7103 27.137 23.5332Z" fill="white"/>
<path d="M30.7625 18.1276H31.5007L32.9118 21.4491V18.1276H33.8019V23.9457H33.0855L31.6743 20.4722V23.9457H30.7625V18.1276Z" fill="white"/>
<path d="M36.7109 23.0122C36.8109 22.8103 36.8558 22.5857 36.8412 22.3609V19.6906C36.8538 19.4659 36.809 19.2418 36.7109 19.0393C36.6593 18.9624 36.5873 18.9013 36.5029 18.863C36.4186 18.8246 36.3253 18.8105 36.2334 18.8222C36.1419 18.8151 36.05 18.8312 35.9665 18.8692C35.883 18.9072 35.8105 18.9657 35.7557 19.0393C35.6577 19.2418 35.6128 19.4659 35.6255 19.6906V22.3609C35.6109 22.5857 35.6558 22.8103 35.7557 23.0122C35.8126 23.0844 35.8851 23.1429 35.9678 23.183C36.0506 23.2232 36.1414 23.244 36.2334 23.244C36.3253 23.244 36.4161 23.2232 36.4988 23.183C36.5815 23.1429 36.654 23.0844 36.7109 23.0122ZM34.9525 23.5332C34.6627 23.1223 34.5246 22.6235 34.5617 22.1221V19.9511C34.5246 19.4497 34.6627 18.9509 34.9525 18.54C35.1168 18.3698 35.3172 18.2386 35.5388 18.156C35.7604 18.0733 35.9978 18.0413 36.2334 18.0624C36.4722 18.0426 36.7123 18.0752 36.9373 18.1576C37.1622 18.2401 37.3665 18.3706 37.5359 18.54C37.8257 18.9509 37.9638 19.4497 37.9267 19.9511V22.1221C37.9575 22.6261 37.8116 23.1251 37.5142 23.5332C37.1653 23.8552 36.7081 24.0339 36.2334 24.0339C35.7587 24.0339 35.3013 23.8552 34.9525 23.5332Z" fill="white"/>
<path d="M38.5346 18.1276H39.6418L40.4668 22.1656L41.3134 18.1276H42.3989L42.5075 23.9457H41.7042L41.6174 19.886L40.7924 23.9457H40.1628L39.3162 19.886L39.2293 23.9457H38.4261L38.5346 18.1276Z" fill="white"/>
<path d="M44.2877 18.1058H43.2456V23.9457H44.2877V18.1058Z" fill="white"/>
<path d="M45.3949 23.5115C45.1002 23.0947 44.9619 22.5874 45.0041 22.0787V19.9077C44.9725 19.3933 45.1097 18.8825 45.3949 18.4532C45.553 18.2737 45.7518 18.1348 45.9746 18.0479C46.1974 17.961 46.438 17.9288 46.6758 17.9539C46.8979 17.9326 47.1219 17.9604 47.332 18.0354C47.5421 18.1105 47.7332 18.2308 47.8915 18.388C48.1544 18.7534 48.2846 19.1977 48.2606 19.6472V20.1248H47.2185V19.6255C47.2315 19.4666 47.2315 19.3068 47.2185 19.1479C47.205 19.0319 47.1512 18.9244 47.0666 18.844C46.9547 18.7674 46.8221 18.7264 46.6865 18.7264C46.551 18.7264 46.4186 18.7674 46.3066 18.844C46.2191 18.9252 46.1586 19.0312 46.1331 19.1479C46.1203 19.3213 46.1203 19.4954 46.1331 19.6689V22.1872C46.112 22.4334 46.157 22.6807 46.2633 22.9037C46.3086 22.9828 46.3755 23.0474 46.4562 23.0897C46.537 23.132 46.6283 23.1503 46.7191 23.1424C46.7864 23.148 46.854 23.1393 46.9176 23.1169C46.9812 23.0944 47.0395 23.0587 47.0883 23.0122C47.1762 22.9342 47.2306 22.8254 47.2401 22.7083C47.2531 22.5421 47.2531 22.3751 47.2401 22.2089V21.6879H48.2823V22.1438C48.3013 22.6063 48.1719 23.0627 47.9131 23.4464C47.7652 23.6196 47.577 23.7537 47.365 23.837C47.153 23.9203 46.9237 23.9502 46.6974 23.924C46.4574 23.9503 46.2148 23.9164 45.9912 23.8254C45.7675 23.7345 45.5701 23.5893 45.4166 23.4029" fill="white"/>
<path d="M50.6702 23.5115C50.4076 23.058 50.2867 22.5364 50.3229 22.0136V20.0597C50.2801 19.5336 50.4096 19.0078 50.6919 18.5618C50.8454 18.3754 51.0429 18.2302 51.2665 18.1393C51.4901 18.0483 51.7329 18.0144 51.9729 18.0407C52.1984 18.0176 52.4261 18.0446 52.64 18.1196C52.8539 18.1947 53.0485 18.316 53.2102 18.4749C53.4962 18.8379 53.6358 19.2949 53.6011 19.7558V20.0597H52.5807V19.7124C52.5944 19.5462 52.5944 19.3792 52.5807 19.213C52.5624 19.0997 52.4999 18.9982 52.4069 18.9308C52.2874 18.8894 52.1575 18.8894 52.0379 18.9308C51.9674 18.9248 51.8963 18.9333 51.8291 18.9557C51.7619 18.9781 51.7 19.0139 51.6472 19.061C51.5569 19.149 51.4962 19.2628 51.4734 19.3867C51.46 19.5674 51.46 19.7488 51.4734 19.9295V22.3609C51.4581 22.6138 51.5027 22.8667 51.6037 23.0991C51.6597 23.1797 51.7343 23.2455 51.8213 23.291C51.9082 23.3365 52.005 23.3602 52.1031 23.3602C52.2012 23.3602 52.2979 23.3365 52.3848 23.291C52.4718 23.2455 52.5464 23.1797 52.6024 23.0991C52.7216 22.8567 52.7741 22.5869 52.7544 22.3175V21.7747H52.1247V21.1017H53.7096V24.0543H53.0149V23.4898C52.9377 23.6894 52.7998 23.8596 52.6205 23.9765C52.4413 24.0934 52.2299 24.151 52.0162 24.1411C51.7897 24.1585 51.5625 24.1201 51.3543 24.0292C51.1462 23.9384 50.9635 23.7979 50.8222 23.6201" fill="white"/>
<path d="M55.6852 20.6241C55.8027 20.6329 55.9208 20.6182 56.0326 20.5809C56.1444 20.5437 56.2477 20.4846 56.3365 20.4071C56.4879 20.209 56.5578 19.9604 56.5319 19.7124C56.5495 19.4819 56.4882 19.2522 56.3582 19.061C56.2809 18.9798 56.1856 18.9179 56.0801 18.8802C55.9745 18.8425 55.8616 18.8301 55.7504 18.844H55.3379V20.6241H55.6852ZM54.2957 18.1059H55.6852C56.1768 18.0675 56.6669 18.1977 57.0746 18.4749C57.2407 18.6229 57.3687 18.8086 57.448 19.0164C57.5274 19.2242 57.5557 19.4479 57.5306 19.6689C57.5409 19.9749 57.4815 20.2793 57.3569 20.559C57.3053 20.6774 57.2309 20.7845 57.1377 20.8739C57.0446 20.9633 56.9346 21.0334 56.8141 21.0801L57.6174 23.9457H56.5536L55.8589 21.2755H55.3379V23.9457H54.2957V18.1059Z" fill="white"/>
<path d="M60.2442 23.0122C60.3442 22.8103 60.3891 22.5857 60.3745 22.3609V19.6906C60.3871 19.466 60.3423 19.2418 60.2442 19.0393C60.1945 18.9605 60.1227 18.8979 60.0378 18.8593C59.9529 18.8207 59.8587 18.8078 59.7666 18.8222C59.6751 18.8151 59.5833 18.8312 59.4998 18.8692C59.4163 18.9072 59.3438 18.9657 59.289 19.0393C59.2357 19.2532 59.2357 19.4768 59.289 19.6906V22.3609C59.2339 22.5745 59.2339 22.7986 59.289 23.0122C59.3378 23.0931 59.4086 23.1585 59.4932 23.2008C59.5777 23.2431 59.6725 23.2605 59.7666 23.251C59.8609 23.2633 59.9568 23.2471 60.0419 23.2046C60.127 23.162 60.1975 23.095 60.2442 23.0122ZM58.4858 23.5332C58.196 23.1223 58.0578 22.6235 58.0949 22.1221V19.9511C58.0578 19.4497 58.196 18.9509 58.4858 18.54C58.6519 18.3723 58.8524 18.2427 59.0736 18.1602C59.2947 18.0778 59.5312 18.0444 59.7666 18.0624C60.0053 18.0426 60.2456 18.0752 60.4706 18.1576C60.6955 18.2401 60.8997 18.3706 61.0691 18.54C61.3588 18.9509 61.4971 19.4497 61.46 19.9511V22.1221C61.4971 22.6235 61.3588 23.1223 61.0691 23.5332C60.9044 23.7103 60.7015 23.8473 60.4757 23.9339C60.2499 24.0204 60.0074 24.0542 59.7666 24.0325C59.5291 24.0524 59.2902 24.0178 59.0683 23.9312C58.8463 23.8447 58.6471 23.7086 58.4858 23.5332Z" fill="white"/>
<path d="M61.8725 18.1276H62.7626L63.2619 21.905L63.848 18.1276H64.5862L65.194 21.905L65.6717 18.1276H66.5617L65.7368 23.9457H64.8901L64.2388 20.038L63.5875 23.9457H62.6974L61.8725 18.1276Z" fill="white"/>
<path d="M67.6472 18.9091H66.6703V18.1276H69.6662V18.9091H68.711V23.9457H67.6472V18.9091Z" fill="white"/>
<path d="M70.0136 18.1276H71.0556V20.559H72.2497V18.1276H73.3134V23.9457H72.2497V21.3189H71.0556V23.9457H70.0136V18.1276Z" fill="white"/>
<path d="M55.251 40.9878L47.0882 48.7381C46.9171 48.8781 46.7837 49.0587 46.7003 49.2635C46.6168 49.4683 46.586 49.6907 46.6106 49.9105V71.6201C46.6106 71.7468 46.6609 71.8682 46.7505 71.9578C46.8401 72.0474 46.9616 72.0977 47.0882 72.0977H55.5115C55.6381 72.0977 55.7596 72.0474 55.8492 71.9578C55.9388 71.8682 55.9891 71.7468 55.9891 71.6201V41.1832C55.9891 40.9443 55.772 40.4667 55.251 40.9878Z" fill="white"/>
<path d="M31.7178 51.1262L23.555 58.8982C23.3885 59.0373 23.2582 59.2147 23.1751 59.415C23.0919 59.6153 23.0583 59.8328 23.0773 60.0488V71.7069C23.0773 71.8336 23.1276 71.9551 23.2172 72.0447C23.3068 72.1342 23.4283 72.1845 23.555 72.1845H31.9783C32.105 72.1845 32.2265 72.1342 32.3161 72.0447C32.4056 71.9551 32.4559 71.8336 32.4559 71.7069V51.3216C32.4559 51.0611 32.2388 50.5835 31.7178 51.1262Z" fill="white"/>
<path d="M58.9634 31.5658C58.9852 31.51 58.9852 31.448 58.9634 31.3922C58.9141 31.3756 58.8607 31.3756 58.8114 31.3922L52.559 32.8033H52.4288C52.4019 32.8211 52.3799 32.8453 52.3646 32.8737C52.3494 32.9021 52.3414 32.9338 52.3414 32.9661C52.3414 32.9983 52.3494 33.0301 52.3646 33.0585C52.3799 33.0869 52.4019 33.1111 52.4288 33.1289L53.8617 34.54L39.4682 48.7381L32.9553 42.2253C32.9418 42.2028 32.9226 42.1842 32.8998 42.1713C32.8769 42.1583 32.8513 42.1516 32.825 42.1516C32.7988 42.1516 32.773 42.1583 32.7502 42.1713C32.7273 42.1842 32.7083 42.2028 32.6948 42.2253L30.9146 44.0055L20.4288 54.4912C20.3967 54.527 20.3791 54.5734 20.3791 54.6214C20.3791 54.6695 20.3967 54.7159 20.4288 54.7517L22.209 56.5319C22.2225 56.5544 22.2415 56.573 22.2644 56.5859C22.2872 56.5988 22.313 56.6056 22.3392 56.6056C22.3655 56.6056 22.3913 56.5988 22.4141 56.5859C22.4369 56.573 22.456 56.5544 22.4695 56.5319L32.825 46.1764L37.5794 50.9308L39.3595 52.6893C39.373 52.7118 39.3922 52.7304 39.415 52.7433C39.4379 52.7562 39.4637 52.763 39.4899 52.763C39.5161 52.763 39.5418 52.7562 39.5646 52.7433C39.5875 52.7304 39.6066 52.7118 39.6202 52.6893L55.7069 36.6242L57.2049 38.1221C57.2377 38.1498 57.2773 38.1681 57.3197 38.1751C57.362 38.1821 57.4054 38.1777 57.4454 38.1621C57.4854 38.1466 57.5205 38.1206 57.5469 38.0868C57.5733 38.053 57.5902 38.0127 57.5957 37.9702L58.9634 31.5658Z" fill="white"/>
<path d="M43.5278 52.4939L39.5767 56.4668C39.5409 56.4988 39.4945 56.5165 39.4464 56.5165C39.3984 56.5165 39.352 56.4988 39.3162 56.4668L35.734 52.8196C35.0827 52.1466 34.9525 52.6893 34.9525 52.9498V71.7069C34.9496 71.7686 34.9591 71.8303 34.9807 71.8881C35.0023 71.946 35.0355 71.9988 35.0781 72.0434C35.1208 72.0881 35.172 72.1236 35.2288 72.1479C35.2856 72.1722 35.3467 72.1846 35.4085 72.1845H43.8534C43.9152 72.1846 43.9763 72.1722 44.0331 72.1479C44.0899 72.1236 44.1411 72.0881 44.1837 72.0434C44.2264 71.9988 44.2595 71.946 44.2811 71.8881C44.3027 71.8303 44.3123 71.7686 44.3094 71.7069V52.6242C44.3094 52.3854 44.114 51.9078 43.5278 52.4939Z" fill="white"/>
</g>
<defs>
<clipPath id="clip0_226_1002">
<rect width="80" height="80" fill="white"/>
</clipPath>
</defs>
</svg>
