<svg width="324" height="140" viewBox="0 0 324 140" fill="none" xmlns="http://www.w3.org/2000/svg">
<path d="M118.865 127.041L115.378 131.476V127.041H113.475V137.179H115.378V132.427L119.182 137.179H121.719L117.28 131.793L121.402 127.041H118.865Z" fill="white"/>
<path d="M118.865 127.041L115.378 131.476V127.041H113.475V137.179H115.378V132.427L119.182 137.179H121.719L117.28 131.793L121.402 127.041H118.865Z" fill="white"/>
<path d="M131.231 128.308C130.914 127.991 130.279 127.358 129.645 127.358C129.011 127.041 128.377 127.041 127.426 127.041C125.841 127.041 124.572 127.358 123.621 128.308C122.67 129.259 122.353 130.526 122.353 132.11C122.353 133.694 122.67 134.961 123.621 135.912C124.572 136.862 125.841 137.496 127.426 137.496C128.06 137.496 129.011 137.496 129.645 137.179C130.279 136.862 130.914 136.545 131.231 136.229C131.548 135.912 131.865 135.278 132.182 134.644C132.499 134.011 132.499 133.377 132.499 132.427C132.499 131.793 132.499 130.843 132.182 130.209C131.865 129.575 131.548 128.942 131.231 128.308ZM129.962 133.377C129.962 133.694 129.645 134.328 129.328 134.644C129.011 134.961 128.694 135.278 128.377 135.595C128.06 135.912 127.426 135.912 127.109 135.912C126.475 135.912 126.158 135.912 125.841 135.595C125.524 135.278 125.207 134.961 124.889 134.644C124.572 134.328 124.572 134.011 124.255 133.377C124.255 133.06 124.255 132.427 124.255 132.11C124.255 131.793 124.255 131.16 124.572 130.843C124.572 130.526 124.889 129.892 125.207 129.576C125.524 129.259 125.841 128.942 126.158 128.625C126.475 128.308 126.792 128.308 127.426 128.308C128.06 128.308 128.377 128.308 128.694 128.625C129.011 128.942 129.328 128.942 129.645 129.576C129.962 129.892 129.962 130.209 130.279 130.843C130.279 131.16 130.596 131.793 130.596 132.11C130.279 132.744 130.279 133.06 129.962 133.377Z" fill="white"/>
<path d="M139.474 132.427C139.157 132.11 139.157 132.11 138.84 132.11C139.474 132.11 140.108 131.793 140.425 131.476C140.742 131.16 141.059 130.526 141.059 129.892C141.059 129.259 141.059 128.625 140.742 128.308C140.425 127.991 140.108 127.675 139.791 127.358C139.474 127.041 138.84 127.041 138.523 127.041C137.889 127.041 137.255 127.041 136.62 127.041H134.401V137.179H136.303V133.06H136.938C137.255 133.06 137.572 133.06 137.889 133.377C138.206 133.377 138.206 133.694 138.523 134.328L139.791 137.496H141.693L140.108 133.694C139.791 133.06 139.791 132.744 139.474 132.427ZM138.84 130.843C138.84 131.16 138.523 131.16 138.206 131.16C137.889 131.16 137.889 131.476 137.572 131.476C137.255 131.476 136.938 131.476 136.62 131.476H135.986V128.625H136.62C136.938 128.625 137.255 128.625 137.572 128.625C137.889 128.625 137.889 128.625 138.206 128.942C138.523 128.942 138.523 129.259 138.84 129.259C138.84 129.575 139.157 129.576 139.157 129.892C138.84 130.209 138.84 130.526 138.84 130.843Z" fill="white"/>
<path d="M145.181 132.744H148.669V131.16H145.181V128.625H148.986V127.041H142.962V137.179H148.986V135.595H145.181V132.744Z" fill="white"/>
<path d="M154.058 127.041L150.254 137.179H152.473L153.424 134.961H157.546L158.497 137.179H160.717L156.912 127.041H154.058ZM153.741 133.377L155.327 129.259L156.912 133.377H153.741Z" fill="white"/>
<path d="M165.472 137.179H167.692V132.744H170.862V131.16H167.692V128.625H171.179V127.041H165.472V137.179Z" fill="white"/>
<path d="M174.667 132.744H178.472V131.16H174.667V128.625H178.789V127.041H172.765V137.179H178.789V135.595H174.667V132.744Z" fill="white"/>
<path d="M187.666 128.308C187.032 127.991 186.398 127.675 185.764 127.358C185.13 127.041 184.179 127.041 183.545 127.041H180.691V137.179H183.545C184.496 137.179 185.13 137.179 185.764 136.862C186.398 136.545 187.032 136.545 187.666 135.912C188.3 135.595 188.617 134.961 188.935 134.328C189.252 134.011 189.252 133.06 189.252 132.11C189.252 131.16 189.252 130.209 188.935 129.576C188.617 128.942 188.3 128.625 187.666 128.308ZM187.032 133.694C186.715 134.011 186.715 134.644 186.398 134.644C186.081 134.961 185.764 135.278 185.447 135.278C185.13 135.278 184.496 135.595 184.179 135.595H182.91V128.625H184.179C184.496 128.625 185.13 128.625 185.447 128.942C185.764 128.942 186.081 129.259 186.398 129.576C186.715 129.892 187.032 130.209 187.032 130.526C187.349 130.843 187.349 131.476 187.349 132.11C187.349 132.744 187.032 133.06 187.032 133.694Z" fill="white"/>
<path d="M193.373 132.744H196.861V131.16H193.373V128.625H197.178V127.041H191.154V137.179H197.178V135.595H193.373V132.744Z" fill="white"/>
<path d="M204.47 132.427C204.153 132.11 204.153 132.11 203.836 132.11C204.47 132.11 205.104 131.793 205.421 131.476C205.738 131.16 206.055 130.526 206.055 129.892C206.055 129.259 206.055 128.625 205.738 128.308C205.421 127.991 205.104 127.675 204.787 127.358C204.47 127.041 203.836 127.041 203.519 127.041C202.885 127.041 202.251 127.041 201.617 127.041H199.397V137.179H201.3V133.06H201.934C202.251 133.06 202.568 133.06 202.885 133.377C203.202 133.377 203.202 133.694 203.519 134.328L204.787 137.496H207.007L205.104 133.377C204.787 133.06 204.787 132.744 204.47 132.427ZM203.836 130.843C203.836 131.16 203.519 131.16 203.202 131.16C202.885 131.16 202.885 131.476 202.568 131.476C202.251 131.476 201.934 131.476 201.617 131.476H200.983V128.625H201.617C201.934 128.625 202.251 128.625 202.568 128.625C202.885 128.625 202.885 128.625 203.202 128.942C203.519 128.942 203.519 129.259 203.836 129.259C203.836 129.575 204.153 129.576 204.153 129.892C203.836 130.209 203.836 130.526 203.836 130.843Z" fill="white"/>
<path d="M210.811 127.041L207.007 137.179H209.226L210.177 134.961H214.299L215.25 137.179H217.469L213.665 127.041H210.811ZM210.494 133.377L212.079 129.259L213.665 133.377H210.494Z" fill="white"/>
<path d="M216.201 128.625H219.055V137.179H221.274V128.625H224.128V127.041H216.201V128.625Z" fill="white"/>
<path d="M226.981 127.041H225.079V137.179H226.981V127.041Z" fill="white"/>
<path d="M237.444 128.308C237.127 127.991 236.493 127.358 235.859 127.358C235.224 127.041 234.59 127.041 233.639 127.041C232.054 127.041 230.786 127.358 229.835 128.308C228.883 129.259 228.566 130.526 228.566 132.11C228.566 133.694 228.883 134.961 229.835 135.912C230.786 136.862 232.054 137.496 233.639 137.496C234.273 137.496 235.224 137.496 235.859 137.179C236.493 136.862 237.127 136.545 237.444 136.229C237.761 135.912 238.078 135.278 238.395 134.644C238.712 134.011 238.712 133.377 238.712 132.427C238.712 131.793 238.712 130.843 238.395 130.209C238.395 129.575 237.761 128.942 237.444 128.308ZM236.493 133.377C236.493 133.694 236.176 134.328 235.859 134.644C235.542 134.961 235.224 135.278 234.907 135.595C234.59 135.912 233.956 135.912 233.639 135.912C233.005 135.912 232.688 135.912 232.371 135.595C232.054 135.278 231.737 134.961 231.42 134.644C231.103 134.328 231.103 134.011 230.786 133.377C230.786 133.06 230.469 132.427 230.469 132.11C230.469 131.793 230.469 131.16 230.786 130.843C230.786 130.526 231.103 129.892 231.42 129.576C231.737 129.259 232.054 128.942 232.371 128.625C232.688 128.308 233.005 128.308 233.639 128.308C234.273 128.308 234.59 128.308 234.907 128.625C235.224 128.942 235.542 128.942 235.859 129.576C236.176 129.892 236.176 130.209 236.493 130.843C236.493 131.16 236.81 131.793 236.81 132.11C236.81 132.744 236.493 133.06 236.493 133.377Z" fill="white"/>
<path d="M246.955 134.644L243.151 127.041H240.614V137.179H242.517V129.576L246.321 137.179H248.858V127.041H246.955V134.644Z" fill="white"/>
<path d="M263.125 128.308C262.808 127.991 262.174 127.358 261.54 127.358C260.906 127.041 260.272 127.041 259.321 127.041C257.735 127.041 256.467 127.358 255.516 128.308C254.565 129.259 254.248 130.526 254.248 132.11C254.248 133.694 254.565 134.961 255.516 135.912C256.467 136.862 257.735 137.496 259.321 137.496C259.955 137.496 260.906 137.496 261.54 137.179C262.174 136.862 262.808 136.545 263.125 136.229C263.442 135.912 263.759 135.278 264.076 134.644C264.394 134.011 264.394 133.377 264.394 132.427C264.394 131.793 264.394 130.843 264.076 130.209C264.076 129.575 263.759 128.942 263.125 128.308ZM262.174 133.377C262.174 133.694 261.857 134.328 261.54 134.644C261.223 134.961 260.906 135.278 260.589 135.595C260.272 135.912 259.638 135.912 259.321 135.912C258.687 135.912 258.37 135.912 258.052 135.595C257.735 135.278 257.418 134.961 257.101 134.644C256.784 134.328 256.784 134.011 256.467 133.377C256.467 133.06 256.15 132.427 256.15 132.11C256.15 131.793 256.15 131.16 256.467 130.843C256.467 130.526 256.784 129.892 257.101 129.576C257.418 129.259 257.735 128.942 258.052 128.625C258.37 128.308 258.687 128.308 259.321 128.308C259.955 128.308 260.272 128.308 260.589 128.625C260.906 128.942 261.223 128.942 261.54 129.576C261.857 129.892 261.857 130.209 262.174 130.843C262.174 131.16 262.491 131.793 262.491 132.11C262.491 132.744 262.174 133.06 262.174 133.377Z" fill="white"/>
<path d="M266.296 137.179H268.198V132.744H271.686V131.16H268.198V128.625H272.003V127.041H266.296V137.179Z" fill="white"/>
<path d="M282.466 132.11C283.1 132.11 283.417 131.793 284.051 131.16C284.368 130.843 284.685 130.209 284.685 129.576C284.685 128.942 284.685 128.625 284.368 128.308C284.051 127.991 284.051 127.675 283.417 127.358C283.1 127.041 282.783 127.041 282.466 127.041C282.149 127.041 281.832 127.041 281.197 127.041H277.71V137.179H281.197C281.514 137.179 281.832 137.179 282.466 137.179C282.783 137.179 283.1 136.862 283.734 136.862C284.051 136.545 284.368 136.229 284.685 135.912C285.002 135.595 285.002 134.961 285.002 134.328C285.002 133.694 284.685 133.06 284.368 132.744C283.734 132.427 283.1 132.11 282.466 132.11ZM279.612 128.625H280.246C280.563 128.625 280.88 128.625 280.88 128.625C281.197 128.625 281.197 128.625 281.514 128.942C281.832 128.942 281.832 129.259 281.832 129.259C281.832 129.575 282.149 129.576 282.149 129.892C282.149 130.209 282.149 130.209 281.832 130.526C281.832 130.843 281.514 130.843 281.514 130.843C281.197 130.843 281.197 130.843 280.88 131.16C280.563 131.16 280.563 131.16 280.246 131.16H279.295V128.625H279.612ZM282.466 134.961C282.466 135.278 282.149 135.278 281.832 135.278C281.514 135.278 281.514 135.595 281.197 135.595C280.88 135.595 280.563 135.595 280.563 135.595H279.612V132.744H280.563C280.88 132.744 281.197 132.744 281.197 132.744C281.514 132.744 281.514 132.744 281.832 133.06C282.149 133.377 282.149 133.377 282.149 133.377C282.149 133.694 282.466 133.694 282.466 134.011C282.466 134.644 282.466 134.644 282.466 134.961Z" fill="white"/>
<path d="M289.124 127.041L285.319 137.179H287.538L288.49 134.961H292.611L293.563 137.179H295.782L291.977 127.041H289.124ZM288.807 133.377L290.392 129.259L291.977 133.377H288.807Z" fill="white"/>
<path d="M303.074 134.644L299.27 127.041H296.733V137.179H298.635V129.576L302.44 137.179H304.977V127.041H303.074V134.644Z" fill="white"/>
<path d="M315.439 127.041H312.903L309.415 131.476V127.041H307.196V137.179H309.415V132.427L312.903 137.179H315.439L311.318 131.793L315.439 127.041Z" fill="white"/>
<path d="M322.732 133.06C322.415 132.744 322.415 132.427 322.097 132.11C321.78 131.793 321.463 131.793 321.146 131.476C320.829 131.476 320.512 131.16 320.195 131.16C319.561 130.843 319.244 130.843 318.927 130.526C318.61 130.209 318.61 130.209 318.61 129.892C318.61 129.576 318.61 129.259 318.61 129.259C318.61 128.942 318.927 128.942 318.927 128.942C318.927 128.942 319.244 128.625 319.561 128.625C319.878 128.625 319.878 128.625 320.195 128.625C320.829 128.625 321.463 128.625 322.097 128.942L322.415 127.358C321.78 127.041 320.829 127.041 319.878 127.041C319.561 127.041 318.927 127.041 318.61 127.358C318.293 127.358 317.976 127.675 317.342 127.991C317.025 128.308 316.708 128.625 316.708 128.942C316.391 129.259 316.391 129.892 316.391 130.209C316.391 130.526 316.391 131.16 316.708 131.476C316.708 131.793 317.025 132.11 317.342 132.427C317.659 132.744 317.976 132.744 318.293 133.06C318.61 133.06 318.927 133.377 319.244 133.377C319.878 133.694 320.195 133.694 320.512 134.011C320.829 134.328 320.829 134.644 320.829 134.961C320.829 135.278 320.512 135.595 320.195 135.912C319.878 136.229 319.561 136.229 318.927 136.229C318.61 136.229 318.293 136.229 317.659 135.912C317.342 135.912 317.025 135.595 316.391 135.595L316.073 137.496H316.391C317.025 137.496 317.342 137.813 317.659 137.813C317.976 137.813 318.293 137.813 318.927 137.813C319.561 137.813 319.878 137.813 320.512 137.496C320.829 137.496 321.463 137.179 321.78 136.862C322.098 136.545 322.415 136.229 322.732 135.912C323.049 135.595 323.049 134.961 323.049 134.644C323.049 134.011 323.049 133.377 322.732 133.06Z" fill="white"/>
<path d="M119.5 106.765H113.475V116.586C113.475 118.804 115.378 120.388 117.597 120.388H143.913V116.269H119.5V106.765Z" fill="white"/>
<path d="M148.351 99.1616H105.866V103.28H148.351V99.1616Z" fill="white"/>
<path d="M182.593 89.3404H185.13V100.429H191.154V75.084H185.13V84.9051H182.593V75.084H176.569V100.429H182.593V89.3404Z" fill="white"/>
<path d="M212.08 105.181H206.055V117.22C206.055 119.121 207.641 120.705 209.543 120.705H234.59V116.586H212.397V105.181H212.08Z" fill="white"/>
<path d="M276.442 75.084H270.1V100.746H276.442V90.6077H281.514V86.1723H276.442V75.084Z" fill="white"/>
<path d="M270.101 108.033H256.467V103.597H250.443V117.22C250.443 119.121 252.028 120.705 253.931 120.705H276.442V103.914H270.418V108.033H270.101ZM270.101 116.27H256.467V112.151H270.101V116.27Z" fill="white"/>
<path d="M127.109 96.3102C134.084 96.3102 139.474 91.558 139.474 85.5386C139.474 79.5192 133.767 74.7671 127.109 74.7671C120.134 74.7671 114.744 79.5192 114.744 85.5386C114.744 91.2412 120.134 96.3102 127.109 96.3102ZM127.109 78.5688C130.279 78.5688 133.133 81.4201 133.133 85.2218C133.133 89.0235 130.596 91.8748 127.109 91.8748C123.938 91.8748 121.085 89.0235 121.085 85.2218C121.085 81.7369 123.938 78.5688 127.109 78.5688Z" fill="white"/>
<path d="M173.716 89.6575C173.716 87.4398 173.082 85.2221 171.496 83.6381L170.862 83.0045H174.667V78.8859H165.472V74.1338H159.131V78.8859H149.62V83.0045H153.741L153.107 83.6381C151.839 85.539 151.205 87.4398 151.205 89.6575C151.205 95.3601 156.278 99.7954 162.619 99.7954C168.643 100.112 173.716 95.3601 173.716 89.6575ZM162.619 95.6769C159.765 95.6769 157.546 92.8256 157.546 89.6575C157.546 86.4894 159.765 83.6381 162.619 83.6381C165.472 83.6381 167.692 86.4894 167.692 89.6575C167.375 93.1424 165.155 95.6769 162.619 95.6769Z" fill="white"/>
<path d="M177.521 102.33C169.594 102.33 163.253 106.765 163.253 112.468C163.253 118.17 169.594 122.605 177.521 122.605C185.447 122.605 191.788 118.17 191.788 112.468C191.788 107.082 185.447 102.33 177.521 102.33ZM177.521 118.487C173.399 118.487 169.911 115.636 169.911 112.468C169.911 109.299 173.399 106.448 177.521 106.448C181.642 106.448 185.13 108.983 185.13 112.468C185.13 115.952 181.642 118.487 177.521 118.487Z" fill="white"/>
<path d="M218.421 95.0431H227.932V105.815H233.956V75.4009H227.932V79.2026H218.738C216.201 76.6681 212.714 75.4009 209.226 75.4009C202.251 75.4009 196.544 80.7867 196.544 87.1229C196.544 93.7759 202.251 98.8448 209.226 98.8448C212.714 98.8448 216.201 97.5776 218.421 95.0431ZM221.591 83.9548V83.3211H228.249V90.9246H221.591V90.6078C221.908 89.3405 222.225 88.3901 222.225 87.1229C221.908 86.1724 221.908 85.222 221.591 83.9548ZM202.885 87.1229C202.885 83.0043 205.738 79.5194 209.226 79.5194C212.714 79.5194 215.567 83.0043 215.567 87.1229C215.567 91.2414 212.714 94.7263 209.226 94.7263C205.738 94.7263 202.885 91.2414 202.885 87.1229Z" fill="white"/>
<path d="M265.028 89.6575C265.028 87.4398 264.394 85.2221 262.808 83.6381L262.174 83.0045H266.296V78.8859H256.784V74.1338H250.443V78.8859H240.931V83.0045H245.053L244.419 83.6381C242.834 85.539 242.2 87.4398 242.2 89.6575C242.2 95.3601 247.273 99.7954 253.614 99.7954C259.955 99.7954 265.028 95.3601 265.028 89.6575ZM248.858 89.6575C248.858 86.4894 251.077 83.6381 253.614 83.6381C256.15 83.6381 258.369 86.1726 258.369 89.6575C258.369 92.8256 256.15 95.6769 253.614 95.6769C251.077 95.6769 248.858 93.1424 248.858 89.6575Z" fill="white"/>
<path d="M316.073 75.0841V104.547H303.074V99.1617C308.147 97.8945 311.635 94.0927 311.635 89.3406C311.635 86.8061 310.683 84.5884 308.781 82.6876H312.903V78.569H303.074V73.8169H296.733V78.569H286.904V82.6876H290.709C289.124 84.5884 287.856 86.8061 287.856 89.3406C287.856 94.0927 291.66 97.8945 296.733 99.1617V104.547H284.051V108.666H316.073V120.388H322.097V75.0841H316.073ZM294.514 89.6574C294.514 86.4893 297.05 83.638 299.904 83.638C302.757 83.638 305.294 86.1725 305.294 89.6574C305.294 92.8255 302.757 95.6768 299.904 95.6768C297.05 95.6768 294.514 92.8255 294.514 89.6574Z" fill="white"/>
<mask id="mask0_234_6561" style="mask-type:luminance" maskUnits="userSpaceOnUse" x="2" y="77" width="38" height="20">
<path d="M2.18921 80.7868V93.776L39.2846 96.9441V77.6187L2.18921 80.7868Z" fill="white"/>
</mask>
<g mask="url(#mask0_234_6561)">
<path d="M39.2846 77.6187H2.18921V97.2609H39.2846V77.6187Z" fill="url(#paint0_linear_234_6561)"/>
</g>
<mask id="mask1_234_6561" style="mask-type:luminance" maskUnits="userSpaceOnUse" x="76" y="0" width="38" height="33">
<path d="M76.38 17.4246V32.9482L113.475 19.6422V0L76.38 17.4246Z" fill="white"/>
</mask>
<g mask="url(#mask1_234_6561)">
<path d="M113.475 0H76.38V32.9482H113.475V0Z" fill="url(#paint1_linear_234_6561)"/>
</g>
<mask id="mask2_234_6561" style="mask-type:luminance" maskUnits="userSpaceOnUse" x="39" y="41" width="38" height="27">
<path d="M39.2847 53.224V67.7973L76.3801 61.1443V41.8188L39.2847 53.224Z" fill="white"/>
</mask>
<g mask="url(#mask2_234_6561)">
<path d="M76.3801 41.8188H39.2847V67.7973H76.3801V41.8188Z" fill="url(#paint2_linear_234_6561)"/>
</g>
<mask id="mask3_234_6561" style="mask-type:luminance" maskUnits="userSpaceOnUse" x="39" y="77" width="38" height="20">
<path d="M39.2847 96.9441L76.3801 93.776V80.7868L39.2847 77.6187V96.9441Z" fill="white"/>
</mask>
<g mask="url(#mask3_234_6561)">
<path d="M76.3801 77.6187H39.2847V97.2609H76.3801V77.6187Z" fill="url(#paint3_linear_234_6561)"/>
</g>
<mask id="mask4_234_6561" style="mask-type:luminance" maskUnits="userSpaceOnUse" x="76" y="41" width="38" height="27">
<path d="M76.38 61.1443L113.475 67.7973V53.224L76.38 41.8188V61.1443Z" fill="white"/>
</mask>
<g mask="url(#mask4_234_6561)">
<path d="M113.475 41.8188H76.38V67.7973H113.475V41.8188Z" fill="url(#paint4_linear_234_6561)"/>
</g>
<mask id="mask5_234_6561" style="mask-type:luminance" maskUnits="userSpaceOnUse" x="113" y="0" width="38" height="33">
<path d="M113.475 19.6422L150.254 32.9482V17.4246L113.475 0V19.6422Z" fill="white"/>
</mask>
<g mask="url(#mask5_234_6561)">
<path d="M150.571 0H113.475V32.9482H150.571V0Z" fill="url(#paint5_linear_234_6561)"/>
</g>
<path d="M113.475 19.6421L76.38 32.9481L113.475 44.3533L150.254 32.9481L113.475 19.6421Z" fill="#BFC0C0"/>
<path d="M76.3801 61.1445L39.2847 67.7975L76.3801 74.1337L113.475 67.7975L76.3801 61.1445Z" fill="#BFC0C0"/>
<mask id="mask6_234_6561" style="mask-type:luminance" maskUnits="userSpaceOnUse" x="2" y="77" width="38" height="20">
<path d="M2.18921 80.7868V93.776L39.2846 96.9441V77.6187L2.18921 80.7868Z" fill="white"/>
</mask>
<g mask="url(#mask6_234_6561)">
<path d="M39.2846 77.6187H2.18921V97.2609H39.2846V77.6187Z" fill="url(#paint6_linear_234_6561)"/>
</g>
<mask id="mask7_234_6561" style="mask-type:luminance" maskUnits="userSpaceOnUse" x="76" y="0" width="38" height="33">
<path d="M76.38 17.4246V32.9482L113.475 19.6422V0L76.38 17.4246Z" fill="white"/>
</mask>
<g mask="url(#mask7_234_6561)">
<path d="M113.475 0H76.38V32.9482H113.475V0Z" fill="url(#paint7_linear_234_6561)"/>
</g>
<mask id="mask8_234_6561" style="mask-type:luminance" maskUnits="userSpaceOnUse" x="39" y="41" width="38" height="27">
<path d="M39.2847 53.224V67.7973L76.3801 61.1443V41.8188L39.2847 53.224Z" fill="white"/>
</mask>
<g mask="url(#mask8_234_6561)">
<path d="M76.3801 41.8188H39.2847V67.7973H76.3801V41.8188Z" fill="url(#paint8_linear_234_6561)"/>
</g>
<mask id="mask9_234_6561" style="mask-type:luminance" maskUnits="userSpaceOnUse" x="39" y="77" width="38" height="20">
<path d="M39.2847 96.9441L76.3801 93.776V80.7868L39.2847 77.6187V96.9441Z" fill="white"/>
</mask>
<g mask="url(#mask9_234_6561)">
<path d="M76.3801 77.6187H39.2847V97.2609H76.3801V77.6187Z" fill="url(#paint9_linear_234_6561)"/>
</g>
<mask id="mask10_234_6561" style="mask-type:luminance" maskUnits="userSpaceOnUse" x="76" y="41" width="38" height="27">
<path d="M76.38 61.1443L113.475 67.7973V53.224L76.38 41.8188V61.1443Z" fill="white"/>
</mask>
<g mask="url(#mask10_234_6561)">
<path d="M113.475 41.8188H76.38V67.7973H113.475V41.8188Z" fill="url(#paint10_linear_234_6561)"/>
</g>
<mask id="mask11_234_6561" style="mask-type:luminance" maskUnits="userSpaceOnUse" x="113" y="0" width="38" height="33">
<path d="M113.475 19.6422L150.254 32.9482V17.4246L113.475 0V19.6422Z" fill="white"/>
</mask>
<g mask="url(#mask11_234_6561)">
<path d="M150.571 0H113.475V32.9482H150.571V0Z" fill="url(#paint11_linear_234_6561)"/>
</g>
<path d="M113.475 19.6421L76.38 32.9481L113.475 44.3533L150.254 32.9481L113.475 19.6421Z" fill="#BFC0C0"/>
<path d="M76.3801 61.1445L39.2847 67.7975L76.3801 74.1337L113.475 67.7975L76.3801 61.1445Z" fill="#BFC0C0"/>
<defs>
<linearGradient id="paint0_linear_234_6561" x1="2.19358" y1="87.2608" x2="39.2478" y2="87.2608" gradientUnits="userSpaceOnUse">
<stop stop-color="#006FBC"/>
<stop offset="0.2919" stop-color="#007FC8"/>
<stop offset="0.6903" stop-color="#008FD4"/>
<stop offset="1" stop-color="#0095D8"/>
</linearGradient>
<linearGradient id="paint1_linear_234_6561" x1="76.3239" y1="16.4303" x2="113.378" y2="16.4303" gradientUnits="userSpaceOnUse">
<stop stop-color="#006FBC"/>
<stop offset="0.2919" stop-color="#007FC8"/>
<stop offset="0.6903" stop-color="#008FD4"/>
<stop offset="1" stop-color="#0095D8"/>
</linearGradient>
<linearGradient id="paint2_linear_234_6561" x1="39.2697" y1="54.6901" x2="76.3242" y2="54.6901" gradientUnits="userSpaceOnUse">
<stop stop-color="#006FBC"/>
<stop offset="0.2919" stop-color="#007FC8"/>
<stop offset="0.6903" stop-color="#008FD4"/>
<stop offset="1" stop-color="#0095D8"/>
</linearGradient>
<linearGradient id="paint3_linear_234_6561" x1="76.2618" y1="87.1849" x2="39.2036" y2="87.1849" gradientUnits="userSpaceOnUse">
<stop stop-color="#0068B7"/>
<stop offset="0.6296" stop-color="#005397"/>
<stop offset="1" stop-color="#004582"/>
</linearGradient>
<linearGradient id="paint4_linear_234_6561" x1="113.316" y1="54.6901" x2="76.2615" y2="54.6901" gradientUnits="userSpaceOnUse">
<stop stop-color="#0068B7"/>
<stop offset="0.6296" stop-color="#005397"/>
<stop offset="1" stop-color="#004582"/>
</linearGradient>
<linearGradient id="paint5_linear_234_6561" x1="150.399" y1="16.5058" x2="113.345" y2="16.5058" gradientUnits="userSpaceOnUse">
<stop stop-color="#0068B7"/>
<stop offset="0.6296" stop-color="#005397"/>
<stop offset="1" stop-color="#004582"/>
</linearGradient>
<linearGradient id="paint6_linear_234_6561" x1="2.19358" y1="87.2608" x2="39.2478" y2="87.2608" gradientUnits="userSpaceOnUse">
<stop stop-color="#006FBC"/>
<stop offset="0.2919" stop-color="#007FC8"/>
<stop offset="0.6903" stop-color="#008FD4"/>
<stop offset="1" stop-color="#0095D8"/>
</linearGradient>
<linearGradient id="paint7_linear_234_6561" x1="76.3239" y1="16.4303" x2="113.378" y2="16.4303" gradientUnits="userSpaceOnUse">
<stop stop-color="#006FBC"/>
<stop offset="0.2919" stop-color="#007FC8"/>
<stop offset="0.6903" stop-color="#008FD4"/>
<stop offset="1" stop-color="#0095D8"/>
</linearGradient>
<linearGradient id="paint8_linear_234_6561" x1="39.2697" y1="54.6901" x2="76.3242" y2="54.6901" gradientUnits="userSpaceOnUse">
<stop stop-color="#006FBC"/>
<stop offset="0.2919" stop-color="#007FC8"/>
<stop offset="0.6903" stop-color="#008FD4"/>
<stop offset="1" stop-color="#0095D8"/>
</linearGradient>
<linearGradient id="paint9_linear_234_6561" x1="76.2618" y1="87.1849" x2="39.2036" y2="87.1849" gradientUnits="userSpaceOnUse">
<stop stop-color="#0068B7"/>
<stop offset="0.6296" stop-color="#005397"/>
<stop offset="1" stop-color="#004582"/>
</linearGradient>
<linearGradient id="paint10_linear_234_6561" x1="113.316" y1="54.6901" x2="76.2615" y2="54.6901" gradientUnits="userSpaceOnUse">
<stop stop-color="#0068B7"/>
<stop offset="0.6296" stop-color="#005397"/>
<stop offset="1" stop-color="#004582"/>
</linearGradient>
<linearGradient id="paint11_linear_234_6561" x1="150.399" y1="16.5058" x2="113.345" y2="16.5058" gradientUnits="userSpaceOnUse">
<stop stop-color="#0068B7"/>
<stop offset="0.6296" stop-color="#005397"/>
<stop offset="1" stop-color="#004582"/>
</linearGradient>
</defs>
</svg>
