<svg width="72" height="51" viewBox="0 0 72 51" fill="none" xmlns="http://www.w3.org/2000/svg">
<mask id="mask0_125_470" style="mask-type:luminance" maskUnits="userSpaceOnUse" x="6" y="37" width="16" height="9">
<path d="M6 39.0806V44.5603L21.2826 45.8968V37.7441L6 39.0806Z" fill="white"/>
</mask>
<g mask="url(#mask0_125_470)">
<path d="M21.2826 37.7441H6V46.0304H21.2826V37.7441Z" fill="url(#paint0_linear_125_470)"/>
</g>
<mask id="mask1_125_470" style="mask-type:luminance" maskUnits="userSpaceOnUse" x="36" y="5" width="16" height="14">
<path d="M36.5653 12.3507V18.8996L51.8479 13.2863V5L36.5653 12.3507Z" fill="white"/>
</mask>
<g mask="url(#mask1_125_470)">
<path d="M51.8479 5H36.5653V18.8996H51.8479V5Z" fill="url(#paint1_linear_125_470)"/>
</g>
<mask id="mask2_125_470" style="mask-type:luminance" maskUnits="userSpaceOnUse" x="21" y="22" width="16" height="12">
<path d="M21.2826 27.453V33.6009L36.5652 30.7942V22.6416L21.2826 27.453Z" fill="white"/>
</mask>
<g mask="url(#mask2_125_470)">
<path d="M36.5652 22.6416H21.2826V33.6009H36.5652V22.6416Z" fill="url(#paint2_linear_125_470)"/>
</g>
<mask id="mask3_125_470" style="mask-type:luminance" maskUnits="userSpaceOnUse" x="21" y="37" width="16" height="9">
<path d="M21.2826 45.8968L36.5652 44.5603V39.0806L21.2826 37.7441V45.8968Z" fill="white"/>
</mask>
<g mask="url(#mask3_125_470)">
<path d="M36.5652 37.7441H21.2826V46.0304H36.5652V37.7441Z" fill="url(#paint3_linear_125_470)"/>
</g>
<mask id="mask4_125_470" style="mask-type:luminance" maskUnits="userSpaceOnUse" x="36" y="22" width="16" height="12">
<path d="M36.5653 30.7942L51.8479 33.6009V27.453L36.5653 22.6416V30.7942Z" fill="white"/>
</mask>
<g mask="url(#mask4_125_470)">
<path d="M51.8479 22.6416H36.5653V33.6009H51.8479V22.6416Z" fill="url(#paint4_linear_125_470)"/>
</g>
<mask id="mask5_125_470" style="mask-type:luminance" maskUnits="userSpaceOnUse" x="51" y="5" width="16" height="14">
<path d="M51.8479 13.2863L66.9999 18.8996V12.3507L51.8479 5V13.2863Z" fill="white"/>
</mask>
<g mask="url(#mask5_125_470)">
<path d="M67.1305 5H51.8479V18.8996H67.1305V5Z" fill="url(#paint5_linear_125_470)"/>
</g>
<path d="M51.8479 13.2861L36.5653 18.8994L51.8479 23.7108L67 18.8994L51.8479 13.2861Z" fill="#BFC0C0"/>
<path d="M36.5652 30.7939L21.2826 33.6006L36.5652 36.2736L51.8479 33.6006L36.5652 30.7939Z" fill="#BFC0C0"/>
<mask id="mask6_125_470" style="mask-type:luminance" maskUnits="userSpaceOnUse" x="6" y="37" width="16" height="9">
<path d="M6 39.0806V44.5603L21.2826 45.8968V37.7441L6 39.0806Z" fill="white"/>
</mask>
<g mask="url(#mask6_125_470)">
<path d="M21.2826 37.7441H6V46.0304H21.2826V37.7441Z" fill="url(#paint6_linear_125_470)"/>
</g>
<mask id="mask7_125_470" style="mask-type:luminance" maskUnits="userSpaceOnUse" x="36" y="5" width="16" height="14">
<path d="M36.5653 12.3507V18.8996L51.8479 13.2863V5L36.5653 12.3507Z" fill="white"/>
</mask>
<g mask="url(#mask7_125_470)">
<path d="M51.8479 5H36.5653V18.8996H51.8479V5Z" fill="url(#paint7_linear_125_470)"/>
</g>
<mask id="mask8_125_470" style="mask-type:luminance" maskUnits="userSpaceOnUse" x="21" y="22" width="16" height="12">
<path d="M21.2826 27.453V33.6009L36.5652 30.7942V22.6416L21.2826 27.453Z" fill="white"/>
</mask>
<g mask="url(#mask8_125_470)">
<path d="M36.5652 22.6416H21.2826V33.6009H36.5652V22.6416Z" fill="url(#paint8_linear_125_470)"/>
</g>
<mask id="mask9_125_470" style="mask-type:luminance" maskUnits="userSpaceOnUse" x="21" y="37" width="16" height="9">
<path d="M21.2826 45.8968L36.5652 44.5603V39.0806L21.2826 37.7441V45.8968Z" fill="white"/>
</mask>
<g mask="url(#mask9_125_470)">
<path d="M36.5652 37.7441H21.2826V46.0304H36.5652V37.7441Z" fill="url(#paint9_linear_125_470)"/>
</g>
<mask id="mask10_125_470" style="mask-type:luminance" maskUnits="userSpaceOnUse" x="36" y="22" width="16" height="12">
<path d="M36.5653 30.7942L51.8479 33.6009V27.453L36.5653 22.6416V30.7942Z" fill="white"/>
</mask>
<g mask="url(#mask10_125_470)">
<path d="M51.8479 22.6416H36.5653V33.6009H51.8479V22.6416Z" fill="url(#paint10_linear_125_470)"/>
</g>
<mask id="mask11_125_470" style="mask-type:luminance" maskUnits="userSpaceOnUse" x="51" y="5" width="16" height="14">
<path d="M51.8479 13.2863L66.9999 18.8996V12.3507L51.8479 5V13.2863Z" fill="white"/>
</mask>
<g mask="url(#mask11_125_470)">
<path d="M67.1305 5H51.8479V18.8996H67.1305V5Z" fill="url(#paint11_linear_125_470)"/>
</g>
<path d="M51.8479 13.2861L36.5653 18.8994L51.8479 23.7108L67 18.8994L51.8479 13.2861Z" fill="#BFC0C0"/>
<path d="M36.5652 30.7939L21.2826 33.6006L36.5652 36.2736L51.8479 33.6006L36.5652 30.7939Z" fill="#BFC0C0"/>
<defs>
<linearGradient id="paint0_linear_125_470" x1="6.0018" y1="41.8118" x2="21.2675" y2="41.8118" gradientUnits="userSpaceOnUse">
<stop stop-color="#006FBC"/>
<stop offset="0.2919" stop-color="#007FC8"/>
<stop offset="0.6903" stop-color="#008FD4"/>
<stop offset="1" stop-color="#0095D8"/>
</linearGradient>
<linearGradient id="paint1_linear_125_470" x1="36.5422" y1="11.9313" x2="51.808" y2="11.9313" gradientUnits="userSpaceOnUse">
<stop stop-color="#006FBC"/>
<stop offset="0.2919" stop-color="#007FC8"/>
<stop offset="0.6903" stop-color="#008FD4"/>
<stop offset="1" stop-color="#0095D8"/>
</linearGradient>
<linearGradient id="paint2_linear_125_470" x1="21.2764" y1="28.0715" x2="36.5422" y2="28.0715" gradientUnits="userSpaceOnUse">
<stop stop-color="#006FBC"/>
<stop offset="0.2919" stop-color="#007FC8"/>
<stop offset="0.6903" stop-color="#008FD4"/>
<stop offset="1" stop-color="#0095D8"/>
</linearGradient>
<linearGradient id="paint3_linear_125_470" x1="36.5165" y1="41.7798" x2="21.2492" y2="41.7798" gradientUnits="userSpaceOnUse">
<stop stop-color="#0068B7"/>
<stop offset="0.6296" stop-color="#005397"/>
<stop offset="1" stop-color="#004582"/>
</linearGradient>
<linearGradient id="paint4_linear_125_470" x1="51.7823" y1="28.0715" x2="36.5165" y2="28.0715" gradientUnits="userSpaceOnUse">
<stop stop-color="#0068B7"/>
<stop offset="0.6296" stop-color="#005397"/>
<stop offset="1" stop-color="#004582"/>
</linearGradient>
<linearGradient id="paint5_linear_125_470" x1="67.0597" y1="11.9632" x2="51.794" y2="11.9632" gradientUnits="userSpaceOnUse">
<stop stop-color="#0068B7"/>
<stop offset="0.6296" stop-color="#005397"/>
<stop offset="1" stop-color="#004582"/>
</linearGradient>
<linearGradient id="paint6_linear_125_470" x1="6.0018" y1="41.8118" x2="21.2675" y2="41.8118" gradientUnits="userSpaceOnUse">
<stop stop-color="#006FBC"/>
<stop offset="0.2919" stop-color="#007FC8"/>
<stop offset="0.6903" stop-color="#008FD4"/>
<stop offset="1" stop-color="#0095D8"/>
</linearGradient>
<linearGradient id="paint7_linear_125_470" x1="36.5422" y1="11.9313" x2="51.808" y2="11.9313" gradientUnits="userSpaceOnUse">
<stop stop-color="#006FBC"/>
<stop offset="0.2919" stop-color="#007FC8"/>
<stop offset="0.6903" stop-color="#008FD4"/>
<stop offset="1" stop-color="#0095D8"/>
</linearGradient>
<linearGradient id="paint8_linear_125_470" x1="21.2764" y1="28.0715" x2="36.5422" y2="28.0715" gradientUnits="userSpaceOnUse">
<stop stop-color="#006FBC"/>
<stop offset="0.2919" stop-color="#007FC8"/>
<stop offset="0.6903" stop-color="#008FD4"/>
<stop offset="1" stop-color="#0095D8"/>
</linearGradient>
<linearGradient id="paint9_linear_125_470" x1="36.5165" y1="41.7798" x2="21.2492" y2="41.7798" gradientUnits="userSpaceOnUse">
<stop stop-color="#0068B7"/>
<stop offset="0.6296" stop-color="#005397"/>
<stop offset="1" stop-color="#004582"/>
</linearGradient>
<linearGradient id="paint10_linear_125_470" x1="51.7823" y1="28.0715" x2="36.5165" y2="28.0715" gradientUnits="userSpaceOnUse">
<stop stop-color="#0068B7"/>
<stop offset="0.6296" stop-color="#005397"/>
<stop offset="1" stop-color="#004582"/>
</linearGradient>
<linearGradient id="paint11_linear_125_470" x1="67.0597" y1="11.9632" x2="51.794" y2="11.9632" gradientUnits="userSpaceOnUse">
<stop stop-color="#0068B7"/>
<stop offset="0.6296" stop-color="#005397"/>
<stop offset="1" stop-color="#004582"/>
</linearGradient>
</defs>
</svg>
