<svg width="185" height="80" viewBox="0 0 185 80" fill="none" xmlns="http://www.w3.org/2000/svg">
<path d="M67.8707 72.5947L65.8793 75.1292V72.5947H64.7931V78.3878H65.8793V75.6723L68.0517 78.3878H69.5L66.9655 75.3102L69.319 72.5947H67.8707Z" fill="#3F3B3A"/>
<path d="M67.8707 72.5947L65.8793 75.1292V72.5947H64.7931V78.3878H65.8793V75.6723L68.0517 78.3878H69.5L66.9655 75.3102L69.319 72.5947H67.8707Z" fill="#3F3B3A"/>
<path d="M74.931 73.3189C74.75 73.1378 74.3879 72.7758 74.0258 72.7758C73.6638 72.5947 73.3017 72.5947 72.7586 72.5947C71.8534 72.5947 71.1293 72.7758 70.5862 73.3189C70.0431 73.862 69.8621 74.5861 69.8621 75.4913C69.8621 76.3965 70.0431 77.1206 70.5862 77.6637C71.1293 78.2068 71.8534 78.5689 72.7586 78.5689C73.1207 78.5689 73.6638 78.5689 74.0258 78.3878C74.3879 78.2068 74.75 78.0258 74.931 77.8447C75.1121 77.6637 75.2931 77.3016 75.4741 76.9396C75.6552 76.5775 75.6552 76.2154 75.6552 75.6723C75.6552 75.3102 75.6552 74.7671 75.4741 74.4051C75.2931 74.043 75.1121 73.6809 74.931 73.3189ZM74.2069 76.2154C74.2069 76.3964 74.0258 76.7585 73.8448 76.9396C73.6638 77.1206 73.4827 77.3016 73.3017 77.4827C73.1207 77.6637 72.7586 77.6637 72.5776 77.6637C72.2155 77.6637 72.0345 77.6637 71.8534 77.4827C71.6724 77.3016 71.4914 77.1206 71.3103 76.9396C71.1293 76.7585 71.1293 76.5775 70.9483 76.2154C70.9483 76.0344 70.9483 75.6723 70.9483 75.4913C70.9483 75.3102 70.9483 74.9482 71.1293 74.7671C71.1293 74.5861 71.3103 74.224 71.4914 74.043C71.6724 73.862 71.8534 73.6809 72.0345 73.4999C72.2155 73.3189 72.3965 73.3189 72.7586 73.3189C73.1207 73.3189 73.3017 73.3189 73.4827 73.4999C73.6638 73.6809 73.8448 73.6809 74.0258 74.043C74.2069 74.224 74.2069 74.4051 74.3879 74.7671C74.3879 74.9482 74.569 75.3102 74.569 75.4913C74.3879 75.8533 74.3879 76.0344 74.2069 76.2154Z" fill="#3F3B3A"/>
<path d="M79.6379 75.6723C79.4569 75.4913 79.4569 75.4913 79.2758 75.4913C79.6379 75.4913 80 75.3102 80.181 75.1292C80.362 74.9482 80.5431 74.5861 80.5431 74.224C80.5431 73.862 80.5431 73.4999 80.3621 73.3189C80.181 73.1378 80 72.9568 79.8189 72.7758C79.6379 72.5947 79.2758 72.5947 79.0948 72.5947C78.7327 72.5947 78.3707 72.5947 78.0086 72.5947H76.7414V78.3878H77.8276V76.0344H78.1896C78.3707 76.0344 78.5517 76.0344 78.7327 76.2154C78.9138 76.2154 78.9138 76.3965 79.0948 76.7585L79.8189 78.5689H80.9052L80 76.3965C79.8189 76.0344 79.8189 75.8533 79.6379 75.6723ZM79.2758 74.7671C79.2758 74.9482 79.0948 74.9482 78.9138 74.9482C78.7327 74.9482 78.7327 75.1292 78.5517 75.1292C78.3707 75.1292 78.1896 75.1292 78.0086 75.1292H77.6465V73.4999H78.0086C78.1896 73.4999 78.3707 73.4999 78.5517 73.4999C78.7327 73.4999 78.7327 73.4999 78.9138 73.6809C79.0948 73.6809 79.0948 73.862 79.2758 73.862C79.2758 74.043 79.4569 74.043 79.4569 74.224C79.2758 74.4051 79.2758 74.5861 79.2758 74.7671Z" fill="#3F3B3A"/>
<path d="M82.8966 75.8533H84.8879V74.9482H82.8966V73.4999H85.069V72.5947H81.6293V78.3878H85.069V77.4827H82.8966V75.8533Z" fill="#3F3B3A"/>
<path d="M87.9655 72.5947L85.7931 78.3878H87.0603L87.6034 77.1206H89.9569L90.5 78.3878H91.7672L89.5948 72.5947H87.9655ZM87.7845 76.2154L88.6896 73.862L89.5948 76.2154H87.7845Z" fill="#3F3B3A"/>
<path d="M94.4827 78.3878H95.75V75.8533H97.5603V74.9482H95.75V73.4999H97.7413V72.5947H94.4827V78.3878Z" fill="#3F3B3A"/>
<path d="M99.7327 75.8533H101.905V74.9482H99.7327V73.4999H102.086V72.5947H98.6465V78.3878H102.086V77.4827H99.7327V75.8533Z" fill="#3F3B3A"/>
<path d="M107.155 73.3189C106.793 73.1378 106.431 72.9568 106.069 72.7758C105.707 72.5947 105.164 72.5947 104.802 72.5947H103.172V78.3878H104.802C105.345 78.3878 105.707 78.3878 106.069 78.2068C106.431 78.0258 106.793 78.0258 107.155 77.6637C107.517 77.4827 107.698 77.1206 107.879 76.7585C108.06 76.5775 108.06 76.0344 108.06 75.4913C108.06 74.9482 108.06 74.4051 107.879 74.043C107.698 73.6809 107.517 73.4999 107.155 73.3189ZM106.793 76.3965C106.612 76.5775 106.612 76.9396 106.431 76.9396C106.25 77.1206 106.069 77.3016 105.888 77.3016C105.707 77.3016 105.345 77.4827 105.164 77.4827H104.44V73.4999H105.164C105.345 73.4999 105.707 73.4999 105.888 73.6809C106.069 73.6809 106.25 73.862 106.431 74.043C106.612 74.224 106.793 74.4051 106.793 74.5861C106.974 74.7671 106.974 75.1292 106.974 75.4913C106.974 75.8533 106.793 76.0344 106.793 76.3965Z" fill="#3F3B3A"/>
<path d="M110.414 75.8533H112.405V74.9482H110.414V73.4999H112.586V72.5947H109.146V78.3878H112.586V77.4827H110.414V75.8533Z" fill="#3F3B3A"/>
<path d="M116.75 75.6723C116.569 75.4913 116.569 75.4913 116.388 75.4913C116.75 75.4913 117.112 75.3102 117.293 75.1292C117.474 74.9482 117.655 74.5861 117.655 74.224C117.655 73.862 117.655 73.4999 117.474 73.3189C117.293 73.1378 117.112 72.9568 116.931 72.7758C116.75 72.5947 116.388 72.5947 116.207 72.5947C115.845 72.5947 115.483 72.5947 115.121 72.5947H113.853V78.3878H114.94V76.0344H115.302C115.483 76.0344 115.664 76.0344 115.845 76.2154C116.026 76.2154 116.026 76.3965 116.207 76.7585L116.931 78.5689H118.198L117.112 76.2154C116.931 76.0344 116.931 75.8533 116.75 75.6723ZM116.388 74.7671C116.388 74.9482 116.207 74.9482 116.026 74.9482C115.845 74.9482 115.845 75.1292 115.664 75.1292C115.483 75.1292 115.302 75.1292 115.121 75.1292H114.759V73.4999H115.121C115.302 73.4999 115.483 73.4999 115.664 73.4999C115.845 73.4999 115.845 73.4999 116.026 73.6809C116.207 73.6809 116.207 73.862 116.388 73.862C116.388 74.043 116.569 74.043 116.569 74.224C116.388 74.4051 116.388 74.5861 116.388 74.7671Z" fill="#3F3B3A"/>
<path d="M120.371 72.5947L118.198 78.3878H119.465L120.009 77.1206H122.362L122.905 78.3878H124.172L122 72.5947H120.371ZM120.19 76.2154L121.095 73.862L122 76.2154H120.19Z" fill="#3F3B3A"/>
<path d="M123.448 73.4999H125.078V78.3878H126.345V73.4999H127.974V72.5947H123.448V73.4999Z" fill="#3F3B3A"/>
<path d="M129.603 72.5947H128.517V78.3878H129.603V72.5947Z" fill="#3F3B3A"/>
<path d="M135.578 73.3189C135.396 73.1378 135.034 72.7758 134.672 72.7758C134.31 72.5947 133.948 72.5947 133.405 72.5947C132.5 72.5947 131.776 72.7758 131.233 73.3189C130.69 73.862 130.509 74.5861 130.509 75.4913C130.509 76.3965 130.69 77.1206 131.233 77.6637C131.776 78.2068 132.5 78.5689 133.405 78.5689C133.767 78.5689 134.31 78.5689 134.672 78.3878C135.034 78.2068 135.396 78.0258 135.578 77.8447C135.759 77.6637 135.94 77.3016 136.121 76.9396C136.302 76.5775 136.302 76.2154 136.302 75.6723C136.302 75.3102 136.302 74.7671 136.121 74.4051C136.121 74.043 135.759 73.6809 135.578 73.3189ZM135.034 76.2154C135.034 76.3964 134.853 76.7585 134.672 76.9396C134.491 77.1206 134.31 77.3016 134.129 77.4827C133.948 77.6637 133.586 77.6637 133.405 77.6637C133.043 77.6637 132.862 77.6637 132.681 77.4827C132.5 77.3016 132.319 77.1206 132.138 76.9396C131.957 76.7585 131.957 76.5775 131.776 76.2154C131.776 76.0344 131.595 75.6723 131.595 75.4913C131.595 75.3102 131.595 74.9482 131.776 74.7671C131.776 74.5861 131.957 74.224 132.138 74.043C132.319 73.862 132.5 73.6809 132.681 73.4999C132.862 73.3189 133.043 73.3189 133.405 73.3189C133.767 73.3189 133.948 73.3189 134.129 73.4999C134.31 73.6809 134.491 73.6809 134.672 74.043C134.853 74.224 134.853 74.4051 135.034 74.7671C135.034 74.9482 135.215 75.3102 135.215 75.4913C135.215 75.8533 135.034 76.0344 135.034 76.2154Z" fill="#3F3B3A"/>
<path d="M141.009 76.9396L138.836 72.5947H137.388V78.3878H138.474V74.043L140.646 78.3878H142.095V72.5947H141.009V76.9396Z" fill="#3F3B3A"/>
<path d="M150.241 73.3189C150.06 73.1378 149.698 72.7758 149.336 72.7758C148.974 72.5947 148.612 72.5947 148.069 72.5947C147.164 72.5947 146.44 72.7758 145.897 73.3189C145.353 73.862 145.172 74.5861 145.172 75.4913C145.172 76.3965 145.353 77.1206 145.897 77.6637C146.44 78.2068 147.164 78.5689 148.069 78.5689C148.431 78.5689 148.974 78.5689 149.336 78.3878C149.698 78.2068 150.06 78.0258 150.241 77.8447C150.422 77.6637 150.603 77.3016 150.784 76.9396C150.965 76.5775 150.965 76.2154 150.965 75.6723C150.965 75.3102 150.965 74.7671 150.784 74.4051C150.784 74.043 150.603 73.6809 150.241 73.3189ZM149.698 76.2154C149.698 76.3964 149.517 76.7585 149.336 76.9396C149.155 77.1206 148.974 77.3016 148.793 77.4827C148.612 77.6637 148.25 77.6637 148.069 77.6637C147.707 77.6637 147.526 77.6637 147.345 77.4827C147.164 77.3016 146.983 77.1206 146.802 76.9396C146.621 76.7585 146.621 76.5775 146.44 76.2154C146.44 76.0344 146.259 75.6723 146.259 75.4913C146.259 75.3102 146.259 74.9482 146.44 74.7671C146.44 74.5861 146.621 74.224 146.802 74.043C146.983 73.862 147.164 73.6809 147.345 73.4999C147.526 73.3189 147.707 73.3189 148.069 73.3189C148.431 73.3189 148.612 73.3189 148.793 73.4999C148.974 73.6809 149.155 73.6809 149.336 74.043C149.517 74.224 149.517 74.4051 149.698 74.7671C149.698 74.9482 149.879 75.3102 149.879 75.4913C149.879 75.8533 149.698 76.0344 149.698 76.2154Z" fill="#3F3B3A"/>
<path d="M152.052 78.3878H153.138V75.8533H155.129V74.9482H153.138V73.4999H155.31V72.5947H152.052V78.3878Z" fill="#3F3B3A"/>
<path d="M161.284 75.4913C161.646 75.4913 161.827 75.3102 162.19 74.9482C162.371 74.7671 162.552 74.4051 162.552 74.043C162.552 73.6809 162.552 73.4999 162.371 73.3189C162.19 73.1378 162.19 72.9568 161.827 72.7758C161.646 72.5947 161.465 72.5947 161.284 72.5947C161.103 72.5947 160.922 72.5947 160.56 72.5947H158.569V78.3878H160.56C160.741 78.3878 160.922 78.3878 161.284 78.3878C161.465 78.3878 161.646 78.2068 162.009 78.2068C162.19 78.0258 162.371 77.8447 162.552 77.6637C162.733 77.4827 162.733 77.1206 162.733 76.7585C162.733 76.3965 162.552 76.0344 162.371 75.8533C162.009 75.6723 161.646 75.4913 161.284 75.4913ZM159.655 73.4999H160.017C160.198 73.4999 160.379 73.4999 160.379 73.4999C160.56 73.4999 160.56 73.4999 160.741 73.6809C160.922 73.6809 160.922 73.862 160.922 73.862C160.922 74.043 161.103 74.043 161.103 74.224C161.103 74.4051 161.103 74.4051 160.922 74.5861C160.922 74.7671 160.741 74.7671 160.741 74.7671C160.56 74.7671 160.56 74.7671 160.379 74.9482C160.198 74.9482 160.198 74.9482 160.017 74.9482H159.474V73.4999H159.655ZM161.284 77.1206C161.284 77.3016 161.103 77.3016 160.922 77.3016C160.741 77.3016 160.741 77.4827 160.56 77.4827C160.379 77.4827 160.198 77.4827 160.198 77.4827H159.655V75.8533H160.198C160.379 75.8533 160.56 75.8533 160.56 75.8533C160.741 75.8533 160.741 75.8533 160.922 76.0344C161.103 76.2154 161.103 76.2154 161.103 76.2154C161.103 76.3964 161.284 76.3964 161.284 76.5775C161.284 76.9396 161.284 76.9396 161.284 77.1206Z" fill="#3F3B3A"/>
<path d="M165.086 72.5947L162.914 78.3878H164.181L164.724 77.1206H167.077L167.621 78.3878H168.888L166.715 72.5947H165.086ZM164.905 76.2154L165.81 73.862L166.715 76.2154H164.905Z" fill="#3F3B3A"/>
<path d="M173.052 76.9396L170.879 72.5947H169.431V78.3878H170.517V74.043L172.69 78.3878H174.138V72.5947H173.052V76.9396Z" fill="#3F3B3A"/>
<path d="M180.112 72.5947H178.664L176.672 75.1292V72.5947H175.405V78.3878H176.672V75.6723L178.664 78.3878H180.112L177.759 75.3102L180.112 72.5947Z" fill="#3F3B3A"/>
<path d="M184.276 76.0344C184.095 75.8533 184.095 75.6723 183.914 75.4913C183.733 75.3102 183.552 75.3102 183.371 75.1292C183.19 75.1292 183.009 74.9482 182.828 74.9482C182.465 74.7671 182.284 74.7671 182.103 74.5861C181.922 74.4051 181.922 74.4051 181.922 74.224C181.922 74.043 181.922 73.862 181.922 73.862C181.922 73.6809 182.103 73.6809 182.103 73.6809C182.103 73.6809 182.284 73.4999 182.465 73.4999C182.646 73.4999 182.646 73.4999 182.828 73.4999C183.19 73.4999 183.552 73.4999 183.914 73.6809L184.095 72.7758C183.733 72.5947 183.19 72.5947 182.646 72.5947C182.465 72.5947 182.103 72.5947 181.922 72.7758C181.741 72.7758 181.56 72.9568 181.198 73.1378C181.017 73.3189 180.836 73.4999 180.836 73.6809C180.655 73.862 180.655 74.224 180.655 74.4051C180.655 74.5861 180.655 74.9482 180.836 75.1292C180.836 75.3102 181.017 75.4913 181.198 75.6723C181.379 75.8533 181.56 75.8533 181.741 76.0344C181.922 76.0344 182.103 76.2154 182.284 76.2154C182.646 76.3964 182.828 76.3964 183.009 76.5775C183.19 76.7585 183.19 76.9396 183.19 77.1206C183.19 77.3016 183.009 77.4827 182.828 77.6637C182.646 77.8447 182.465 77.8447 182.103 77.8447C181.922 77.8447 181.741 77.8447 181.379 77.6637C181.198 77.6637 181.017 77.4827 180.655 77.4827L180.474 78.5689H180.655C181.017 78.5689 181.198 78.7499 181.379 78.7499C181.56 78.7499 181.741 78.7499 182.103 78.7499C182.465 78.7499 182.646 78.7499 183.009 78.5689C183.19 78.5689 183.552 78.3878 183.733 78.2068C183.914 78.0258 184.095 77.8447 184.276 77.6637C184.457 77.4827 184.457 77.1206 184.457 76.9396C184.457 76.5775 184.457 76.2154 184.276 76.0344Z" fill="#3F3B3A"/>
<path d="M68.2328 61.0078H64.7931V66.6199C64.7931 67.8871 65.8793 68.7923 67.1466 68.7923H82.1724V66.4388H68.2328V61.0078Z" fill="#3F3B3A"/>
<path d="M84.7069 56.6631H60.4483V59.0165H84.7069V56.6631Z" fill="#3F3B3A"/>
<path d="M104.259 51.0518H105.707V57.388H109.146V42.9053H105.707V48.5173H104.259V42.9053H100.819V57.388H104.259V51.0518Z" fill="#3F3B3A"/>
<path d="M121.095 60.1035H117.655V66.9828C117.655 68.069 118.56 68.9742 119.647 68.9742H133.948V66.6207H121.276V60.1035H121.095Z" fill="#3F3B3A"/>
<path d="M157.845 42.9053H154.224V57.5691H157.845V51.776H160.741V49.2415H157.845V42.9053Z" fill="#3F3B3A"/>
<path d="M154.224 61.7327H146.44V59.1982H143V66.9827C143 68.0689 143.905 68.9741 144.991 68.9741H157.845V59.3793H154.405V61.7327H154.224ZM154.224 66.4396H146.44V64.0862H154.224V66.4396Z" fill="#3F3B3A"/>
<path d="M72.5775 55.034C76.5603 55.034 79.6379 52.3185 79.6379 48.8788C79.6379 45.4391 76.3793 42.7236 72.5775 42.7236C68.5948 42.7236 65.5172 45.4391 65.5172 48.8788C65.5172 52.1374 68.5948 55.034 72.5775 55.034ZM72.5775 44.896C74.3879 44.896 76.0172 46.5254 76.0172 48.6978C76.0172 50.8702 74.5689 52.4995 72.5775 52.4995C70.7672 52.4995 69.1379 50.8702 69.1379 48.6978C69.1379 46.7064 70.7672 44.896 72.5775 44.896Z" fill="#3F3B3A"/>
<path d="M99.1896 51.232C99.1896 49.9648 98.8275 48.6975 97.9224 47.7924L97.5603 47.4303H99.7327V45.0768H94.4827V42.3613H90.862V45.0768H85.431V47.4303H87.7844L87.4224 47.7924C86.6982 48.8786 86.3362 49.9648 86.3362 51.232C86.3362 54.4906 89.2327 57.0251 92.8534 57.0251C96.293 57.2061 99.1896 54.4906 99.1896 51.232ZM92.8534 54.6717C91.2241 54.6717 89.9568 53.0424 89.9568 51.232C89.9568 49.4217 91.2241 47.7924 92.8534 47.7924C94.4827 47.7924 95.7499 49.4217 95.7499 51.232C95.5689 53.2234 94.3017 54.6717 92.8534 54.6717Z" fill="#3F3B3A"/>
<path d="M101.362 58.4736C96.8362 58.4736 93.2155 61.0081 93.2155 64.2667C93.2155 67.5254 96.8362 70.0598 101.362 70.0598C105.888 70.0598 109.509 67.5254 109.509 64.2667C109.509 61.1891 105.888 58.4736 101.362 58.4736ZM101.362 67.7064C99.0086 67.7064 97.0172 66.0771 97.0172 64.2667C97.0172 62.4564 99.0086 60.8271 101.362 60.8271C103.715 60.8271 105.707 62.2754 105.707 64.2667C105.707 66.2581 103.715 67.7064 101.362 67.7064Z" fill="#3F3B3A"/>
<path d="M124.715 54.3101H130.146V60.4652H133.586V43.0859H130.146V45.2584H124.897C123.448 43.8101 121.457 43.0859 119.465 43.0859C115.483 43.0859 112.224 46.1635 112.224 49.7842C112.224 53.5859 115.483 56.4825 119.465 56.4825C121.457 56.4825 123.448 55.7583 124.715 54.3101ZM126.526 47.9739V47.6118H130.328V51.9566H126.526V51.7756C126.707 51.0515 126.888 50.5083 126.888 49.7842C126.707 49.2411 126.707 48.698 126.526 47.9739ZM115.845 49.7842C115.845 47.4308 117.474 45.4394 119.465 45.4394C121.457 45.4394 123.086 47.4308 123.086 49.7842C123.086 52.1377 121.457 54.129 119.465 54.129C117.474 54.129 115.845 52.1377 115.845 49.7842Z" fill="#3F3B3A"/>
<path d="M151.328 51.232C151.328 49.9648 150.965 48.6975 150.06 47.7924L149.698 47.4303H152.052V45.0768H146.621V42.3613H143V45.0768H137.569V47.4303H139.922L139.56 47.7924C138.655 48.8786 138.293 49.9648 138.293 51.232C138.293 54.4906 141.19 57.0251 144.81 57.0251C148.431 57.0251 151.328 54.4906 151.328 51.232ZM142.095 51.232C142.095 49.4217 143.362 47.7924 144.81 47.7924C146.259 47.7924 147.526 49.2406 147.526 51.232C147.526 53.0424 146.259 54.6717 144.81 54.6717C143.362 54.6717 142.095 53.2234 142.095 51.232Z" fill="#3F3B3A"/>
<path d="M180.474 42.9048V59.741H173.052V56.6634C175.948 55.9393 177.94 53.7669 177.94 51.0513C177.94 49.6031 177.396 48.3358 176.31 47.2496H178.664V44.8962H173.052V42.1807H169.431V44.8962H163.819V47.2496H165.991C165.086 48.3358 164.362 49.6031 164.362 51.0513C164.362 53.7669 166.534 55.9393 169.431 56.6634V59.741H162.19V62.0944H180.474V68.7927H183.914V42.9048H180.474ZM168.164 51.2324C168.164 49.422 169.612 47.7927 171.241 47.7927C172.871 47.7927 174.319 49.241 174.319 51.2324C174.319 53.0427 172.871 54.672 171.241 54.672C169.612 54.672 168.164 53.0427 168.164 51.2324Z" fill="#3F3B3A"/>
<mask id="mask0_177_236" style="mask-type:luminance" maskUnits="userSpaceOnUse" x="1" y="44" width="22" height="12">
<path d="M1.25 46.1639V53.5863L22.431 55.3966V44.3535L1.25 46.1639Z" fill="white"/>
</mask>
<g mask="url(#mask0_177_236)">
<path d="M22.431 44.3535H1.25V55.5776H22.431V44.3535Z" fill="url(#paint0_linear_177_236)"/>
</g>
<mask id="mask1_177_236" style="mask-type:luminance" maskUnits="userSpaceOnUse" x="43" y="0" width="22" height="19">
<path d="M43.612 9.95689V18.8276L64.793 11.2241V0L43.612 9.95689Z" fill="white"/>
</mask>
<g mask="url(#mask1_177_236)">
<path d="M64.793 0H43.612V18.8276H64.793V0Z" fill="url(#paint1_linear_177_236)"/>
</g>
<mask id="mask2_177_236" style="mask-type:luminance" maskUnits="userSpaceOnUse" x="22" y="23" width="22" height="16">
<path d="M22.4311 30.4137V38.7413L43.6121 34.9396V23.8965L22.4311 30.4137Z" fill="white"/>
</mask>
<g mask="url(#mask2_177_236)">
<path d="M43.6121 23.8965H22.4311V38.7413H43.6121V23.8965Z" fill="url(#paint2_linear_177_236)"/>
</g>
<mask id="mask3_177_236" style="mask-type:luminance" maskUnits="userSpaceOnUse" x="22" y="44" width="22" height="12">
<path d="M22.4311 55.3966L43.6121 53.5863V46.1639L22.4311 44.3535V55.3966Z" fill="white"/>
</mask>
<g mask="url(#mask3_177_236)">
<path d="M43.6121 44.3535H22.4311V55.5776H43.6121V44.3535Z" fill="url(#paint3_linear_177_236)"/>
</g>
<mask id="mask4_177_236" style="mask-type:luminance" maskUnits="userSpaceOnUse" x="43" y="23" width="22" height="16">
<path d="M43.612 34.9396L64.793 38.7413V30.4137L43.612 23.8965V34.9396Z" fill="white"/>
</mask>
<g mask="url(#mask4_177_236)">
<path d="M64.793 23.8965H43.612V38.7413H64.793V23.8965Z" fill="url(#paint4_linear_177_236)"/>
</g>
<mask id="mask5_177_236" style="mask-type:luminance" maskUnits="userSpaceOnUse" x="64" y="0" width="22" height="19">
<path d="M64.7931 11.2241L85.793 18.8276V9.95689L64.7931 0V11.2241Z" fill="white"/>
</mask>
<g mask="url(#mask5_177_236)">
<path d="M85.9741 0H64.7931V18.8276H85.9741V0Z" fill="url(#paint5_linear_177_236)"/>
</g>
<path d="M64.793 11.2246L43.612 18.8281L64.793 25.3453L85.793 18.8281L64.793 11.2246Z" fill="#BFC0C0"/>
<path d="M43.6121 34.9395L22.4311 38.7412L43.6121 42.3619L64.7931 38.7412L43.6121 34.9395Z" fill="#BFC0C0"/>
<mask id="mask6_177_236" style="mask-type:luminance" maskUnits="userSpaceOnUse" x="1" y="44" width="22" height="12">
<path d="M1.25 46.1639V53.5863L22.431 55.3966V44.3535L1.25 46.1639Z" fill="white"/>
</mask>
<g mask="url(#mask6_177_236)">
<path d="M22.431 44.3535H1.25V55.5776H22.431V44.3535Z" fill="url(#paint6_linear_177_236)"/>
</g>
<mask id="mask7_177_236" style="mask-type:luminance" maskUnits="userSpaceOnUse" x="43" y="0" width="22" height="19">
<path d="M43.612 9.95689V18.8276L64.793 11.2241V0L43.612 9.95689Z" fill="white"/>
</mask>
<g mask="url(#mask7_177_236)">
<path d="M64.793 0H43.612V18.8276H64.793V0Z" fill="url(#paint7_linear_177_236)"/>
</g>
<mask id="mask8_177_236" style="mask-type:luminance" maskUnits="userSpaceOnUse" x="22" y="23" width="22" height="16">
<path d="M22.4311 30.4137V38.7413L43.6121 34.9396V23.8965L22.4311 30.4137Z" fill="white"/>
</mask>
<g mask="url(#mask8_177_236)">
<path d="M43.6121 23.8965H22.4311V38.7413H43.6121V23.8965Z" fill="url(#paint8_linear_177_236)"/>
</g>
<mask id="mask9_177_236" style="mask-type:luminance" maskUnits="userSpaceOnUse" x="22" y="44" width="22" height="12">
<path d="M22.4311 55.3966L43.6121 53.5863V46.1639L22.4311 44.3535V55.3966Z" fill="white"/>
</mask>
<g mask="url(#mask9_177_236)">
<path d="M43.6121 44.3535H22.4311V55.5776H43.6121V44.3535Z" fill="url(#paint9_linear_177_236)"/>
</g>
<mask id="mask10_177_236" style="mask-type:luminance" maskUnits="userSpaceOnUse" x="43" y="23" width="22" height="16">
<path d="M43.612 34.9396L64.793 38.7413V30.4137L43.612 23.8965V34.9396Z" fill="white"/>
</mask>
<g mask="url(#mask10_177_236)">
<path d="M64.793 23.8965H43.612V38.7413H64.793V23.8965Z" fill="url(#paint10_linear_177_236)"/>
</g>
<mask id="mask11_177_236" style="mask-type:luminance" maskUnits="userSpaceOnUse" x="64" y="0" width="22" height="19">
<path d="M64.7931 11.2241L85.793 18.8276V9.95689L64.7931 0V11.2241Z" fill="white"/>
</mask>
<g mask="url(#mask11_177_236)">
<path d="M85.9741 0H64.7931V18.8276H85.9741V0Z" fill="url(#paint11_linear_177_236)"/>
</g>
<path d="M64.793 11.2246L43.612 18.8281L64.793 25.3453L85.793 18.8281L64.793 11.2246Z" fill="#BFC0C0"/>
<path d="M43.6121 34.9395L22.4311 38.7412L43.6121 42.3619L64.7931 38.7412L43.6121 34.9395Z" fill="#BFC0C0"/>
<defs>
<linearGradient id="paint0_linear_177_236" x1="1.2525" y1="49.8633" x2="22.41" y2="49.8633" gradientUnits="userSpaceOnUse">
<stop stop-color="#006FBC"/>
<stop offset="0.2919" stop-color="#007FC8"/>
<stop offset="0.6903" stop-color="#008FD4"/>
<stop offset="1" stop-color="#0095D8"/>
</linearGradient>
<linearGradient id="paint1_linear_177_236" x1="43.58" y1="9.38871" x2="64.7376" y2="9.38871" gradientUnits="userSpaceOnUse">
<stop stop-color="#006FBC"/>
<stop offset="0.2919" stop-color="#007FC8"/>
<stop offset="0.6903" stop-color="#008FD4"/>
<stop offset="1" stop-color="#0095D8"/>
</linearGradient>
<linearGradient id="paint2_linear_177_236" x1="22.4225" y1="31.2515" x2="43.5802" y2="31.2515" gradientUnits="userSpaceOnUse">
<stop stop-color="#006FBC"/>
<stop offset="0.2919" stop-color="#007FC8"/>
<stop offset="0.6903" stop-color="#008FD4"/>
<stop offset="1" stop-color="#0095D8"/>
</linearGradient>
<linearGradient id="paint3_linear_177_236" x1="43.5446" y1="49.8199" x2="22.3848" y2="49.8199" gradientUnits="userSpaceOnUse">
<stop stop-color="#0068B7"/>
<stop offset="0.6296" stop-color="#005397"/>
<stop offset="1" stop-color="#004582"/>
</linearGradient>
<linearGradient id="paint4_linear_177_236" x1="64.702" y1="31.2515" x2="43.5443" y2="31.2515" gradientUnits="userSpaceOnUse">
<stop stop-color="#0068B7"/>
<stop offset="0.6296" stop-color="#005397"/>
<stop offset="1" stop-color="#004582"/>
</linearGradient>
<linearGradient id="paint5_linear_177_236" x1="85.8759" y1="9.43189" x2="64.7184" y2="9.43189" gradientUnits="userSpaceOnUse">
<stop stop-color="#0068B7"/>
<stop offset="0.6296" stop-color="#005397"/>
<stop offset="1" stop-color="#004582"/>
</linearGradient>
<linearGradient id="paint6_linear_177_236" x1="1.2525" y1="49.8633" x2="22.41" y2="49.8633" gradientUnits="userSpaceOnUse">
<stop stop-color="#006FBC"/>
<stop offset="0.2919" stop-color="#007FC8"/>
<stop offset="0.6903" stop-color="#008FD4"/>
<stop offset="1" stop-color="#0095D8"/>
</linearGradient>
<linearGradient id="paint7_linear_177_236" x1="43.58" y1="9.38871" x2="64.7376" y2="9.38871" gradientUnits="userSpaceOnUse">
<stop stop-color="#006FBC"/>
<stop offset="0.2919" stop-color="#007FC8"/>
<stop offset="0.6903" stop-color="#008FD4"/>
<stop offset="1" stop-color="#0095D8"/>
</linearGradient>
<linearGradient id="paint8_linear_177_236" x1="22.4225" y1="31.2515" x2="43.5802" y2="31.2515" gradientUnits="userSpaceOnUse">
<stop stop-color="#006FBC"/>
<stop offset="0.2919" stop-color="#007FC8"/>
<stop offset="0.6903" stop-color="#008FD4"/>
<stop offset="1" stop-color="#0095D8"/>
</linearGradient>
<linearGradient id="paint9_linear_177_236" x1="43.5446" y1="49.8199" x2="22.3848" y2="49.8199" gradientUnits="userSpaceOnUse">
<stop stop-color="#0068B7"/>
<stop offset="0.6296" stop-color="#005397"/>
<stop offset="1" stop-color="#004582"/>
</linearGradient>
<linearGradient id="paint10_linear_177_236" x1="64.702" y1="31.2515" x2="43.5443" y2="31.2515" gradientUnits="userSpaceOnUse">
<stop stop-color="#0068B7"/>
<stop offset="0.6296" stop-color="#005397"/>
<stop offset="1" stop-color="#004582"/>
</linearGradient>
<linearGradient id="paint11_linear_177_236" x1="85.8759" y1="9.43189" x2="64.7184" y2="9.43189" gradientUnits="userSpaceOnUse">
<stop stop-color="#0068B7"/>
<stop offset="0.6296" stop-color="#005397"/>
<stop offset="1" stop-color="#004582"/>
</linearGradient>
</defs>
</svg>
