<svg width="128" height="57" viewBox="0 0 128 57" fill="none" xmlns="http://www.w3.org/2000/svg">
<g clip-path="url(#clip0_181_652)">
<path d="M58.6848 32.6644C58.6848 34.2911 59.8038 35.7226 61.5444 35.8527C61.3579 37.1541 60.6741 38.7158 60.3011 39.6267C59.6173 41.0582 61.1714 41.9041 61.9796 40.7979C63.7824 38.3253 64.8392 35.2671 64.8392 32.7945C64.8392 31.0377 63.5959 29.411 61.7931 29.411C60.0525 29.411 58.6848 30.9075 58.6848 32.6644ZM41.6513 29.9315C41.6513 28.0445 43.6406 26.8082 46.6867 26.8082C49.6707 26.8082 51.66 28.0445 51.66 29.9315C51.66 31.8185 49.6707 32.9247 46.6867 32.9247C43.6406 32.9247 41.6513 31.7534 41.6513 29.9315ZM31.3939 18.6747C31.3939 19.7158 32.0155 20.7568 33.2589 20.7568H60.1146C61.3579 20.7568 61.9796 19.7158 61.9796 18.6747C61.9796 17.6336 61.3579 16.5925 60.1146 16.5925H48.9869V14.1199C51.5357 13.9897 54.271 13.5993 56.6333 12.9486C57.5658 12.6884 58.2496 11.9075 58.2496 10.9315C58.2496 9.69521 57.3172 8.91438 56.1982 8.91438C56.0117 8.91438 55.7008 8.97945 55.5143 9.04452C52.6547 9.82534 49.4221 10.1507 46.6867 10.1507C44.1379 10.1507 41.9621 10.0205 40.3458 9.56507C40.1593 9.5 40.0971 9.43493 40.0971 9.17466V6.18151H55.5765C56.8198 6.18151 57.5036 5.40069 57.5036 4.16438C57.5036 2.92808 56.8198 2.08219 55.5765 2.08219H38.17C36.678 2.08219 35.6212 2.92808 35.6212 4.35959V9.69521C35.6212 11.5822 36.1807 12.6233 37.9835 13.2089C39.4133 13.7295 41.9621 13.9897 44.4488 14.1199V16.5925H33.2589C32.0155 16.5925 31.3939 17.5685 31.3939 18.6747ZM56.2603 29.9315C56.2603 25.637 52.2817 22.7089 46.6867 22.7089C41.0296 22.7089 37.1132 25.637 37.1132 29.9315C37.1132 34.0959 41.0918 37.024 46.6867 37.024C52.2817 37.024 56.2603 34.0959 56.2603 29.9315ZM17.593 3.31849V19.1952C17.593 20.7568 18.8985 21.1473 19.831 21.1473C20.8256 21.1473 22.069 20.7568 22.069 19.1952V13.5993H24.9908V20.9521C24.9908 22.5137 26.2963 22.9041 27.2288 22.9041C28.2234 22.9041 29.4667 22.5137 29.4667 20.9521V2.92808C29.4667 1.36644 28.2234 0.715753 27.2288 0.715753C26.2963 0.715753 24.9908 1.36644 24.9908 2.92808V9.43493H22.069V3.31849C22.069 1.75685 20.8256 1.10616 19.831 1.10616C18.8985 1.10616 17.593 1.75685 17.593 3.31849ZM11.8116 29.8014C11.8116 28.1747 13.4279 26.6781 18.0903 26.6781C22.7528 26.6781 24.3691 28.1747 24.3691 29.8014C24.3691 31.4281 22.7528 32.9247 18.0903 32.9247C13.4279 32.8596 11.8116 31.363 11.8116 29.8014ZM7.27343 29.8014C7.27343 33.8356 11.0034 37.024 18.1525 37.024C25.3016 37.024 29.0316 33.7705 29.0316 29.8014C29.0316 25.8322 25.3016 22.5788 18.1525 22.5788C11.0034 22.5137 7.27343 25.7671 7.27343 29.8014ZM6.03011 14.7705C6.03011 13.339 7.08694 12.2979 8.57892 12.2979C10.0709 12.2979 11.1277 13.339 11.1277 14.7705C11.1277 16.2021 10.0709 17.2432 8.57892 17.2432C7.08694 17.2432 6.03011 16.2671 6.03011 14.7705ZM0 4.88014C0 5.92123 0.621661 6.70206 1.67848 6.89726C3.60563 7.28767 6.21661 7.41781 8.70325 7.41781C11.1899 7.41781 13.3035 7.2226 14.8577 6.89726C15.8524 6.70206 16.5362 5.92123 16.5362 4.88014C16.5362 3.38356 15.4172 2.66781 14.236 2.92808C13.117 3.12329 11.9359 3.25342 10.7547 3.25342V2.08219C10.7547 0.520548 9.51141 0 8.57892 0C7.45993 0 6.40311 0.650685 6.40311 2.08219V3.31849C5.03545 3.25342 3.60563 3.12329 2.30015 2.92808C1.11899 2.66781 0 3.38356 0 4.88014ZM1.67848 14.7705C1.67848 18.6096 4.66246 21.2123 8.51676 21.2123C12.4332 21.2123 15.355 18.6096 15.355 14.7705C15.355 10.9315 12.3711 8.32877 8.51676 8.32877C4.66246 8.39384 1.67848 10.9966 1.67848 14.7705Z" fill="white"/>
<path d="M109.91 50.5582C109.91 47.8904 112.894 46.3939 117.307 46.3939C121.659 46.3939 124.705 47.8904 124.705 50.5582C124.705 53.226 121.721 54.7226 117.307 54.7226C112.956 54.7226 109.91 53.226 109.91 50.5582ZM107.485 50.5582C107.485 54.7226 111.402 57 117.307 57C123.213 57 127.13 54.7226 127.13 50.5582C127.13 46.3938 123.213 44.1165 117.307 44.1165C111.402 44.1165 107.485 46.3938 107.485 50.5582ZM104.626 35.7877C104.626 33.3802 106.18 31.9486 108.293 31.9486C110.345 31.9486 111.961 33.3802 111.961 35.7877C111.961 38.1952 110.345 39.5617 108.293 39.5617C106.18 39.5617 104.626 38.1952 104.626 35.7877ZM102.325 35.7877C102.325 39.4315 104.812 41.7089 108.293 41.7089C111.713 41.7089 114.261 39.4315 114.261 35.7877C114.261 32.1439 111.713 29.8665 108.293 29.8665C104.874 29.8665 102.325 32.1439 102.325 35.7877ZM100.46 26.3528C100.46 26.8733 100.709 27.3288 101.455 27.4589C102.947 27.7192 105.496 27.9795 108.293 27.9795C111.091 27.9795 113.702 27.7192 115.194 27.3938C115.94 27.2637 116.188 26.8733 116.188 26.3528C116.188 25.5719 115.691 25.0514 114.945 25.2466C113.515 25.4418 111.402 25.7021 109.475 25.7671V23.2945C109.475 22.5137 108.977 21.9932 108.356 21.9932C107.734 21.9932 107.237 22.5137 107.237 23.2945V25.7671C105.247 25.7021 103.196 25.5069 101.766 25.2466C100.958 25.0514 100.46 25.637 100.46 26.3528ZM125.576 23.8151V31.2329H120.851V24.4007C120.851 23.5548 120.291 23.0993 119.67 23.0993C119.048 23.0993 118.489 23.4897 118.489 24.4007V40.6678C118.489 41.5137 119.048 41.9692 119.67 41.9692C120.291 41.9692 120.851 41.5788 120.851 40.6678V33.5103H125.576V42.2945C125.576 43.1404 126.135 43.5959 126.757 43.5959C127.378 43.5959 127.938 43.2055 127.938 42.2945V23.8151C127.938 22.9692 127.378 22.5137 126.757 22.5137C126.197 22.5137 125.576 22.9692 125.576 23.8151ZM79.7591 50.298C79.7591 47.6302 82.2458 45.8733 85.8514 45.8733C89.457 45.8733 91.9437 47.6302 91.9437 50.298C91.9437 52.9658 89.457 54.7226 85.8514 54.7226C82.2458 54.7226 79.7591 52.9658 79.7591 50.298ZM77.3347 50.298C77.3347 54.3322 80.6916 56.9349 85.8514 56.9349C91.0112 56.9349 94.3682 54.3322 94.3682 50.298C94.3682 46.2637 91.0112 43.661 85.8514 43.661C80.6916 43.661 77.3347 46.3288 77.3347 50.298ZM77.459 33.8356C79.0131 34.4212 81.8728 34.8117 84.6081 34.8767V38.5856H72.4235C71.6154 38.5856 71.2424 39.1062 71.2424 39.6918C71.2424 40.2774 71.6154 40.798 72.4235 40.798H99.2793C100.087 40.798 100.46 40.2774 100.46 39.6918C100.46 39.0411 100.087 38.5856 99.2793 38.5856H87.0947V34.8767C89.83 34.7466 92.8762 34.2911 95.4872 33.5103C96.1088 33.3151 96.3575 32.8596 96.3575 32.4041C96.3575 31.7534 96.0466 31.298 95.3628 31.298C95.2385 31.298 95.1142 31.363 94.9277 31.363C92.0058 32.2089 88.5867 32.7295 85.7892 32.7295C83.1161 32.7295 80.7538 32.5343 79.0753 32.0137C78.3915 31.8185 78.205 31.5582 78.205 30.8425V26.2226H94.306C95.1142 26.2226 95.4872 25.7021 95.4872 25.1165C95.4872 24.4658 95.1142 24.0103 94.306 24.0103H77.2725C76.2778 24.0103 75.7805 24.4658 75.7805 25.3767V31.4281C75.8427 32.8596 76.1535 33.3802 77.459 33.8356Z" fill="white"/>
</g>
<defs>
<clipPath id="clip0_181_652">
<rect width="128" height="57" fill="white"/>
</clipPath>
</defs>
</svg>
