<svg width="40" height="40" viewBox="0 0 40 40" fill="none" xmlns="http://www.w3.org/2000/svg">
<path d="M12.635 10.4663C12.635 12.9284 10.629 14.9325 8.16444 14.9325C5.69988 14.9325 3.69385 12.9284 3.69385 10.4663C3.75116 8.00409 5.69988 6 8.16444 6C10.6863 6 12.635 8.00409 12.635 10.4663Z" fill="#9DDE8B"/>
<path d="M15.3861 31.8242V24.8385C15.3861 20.8876 12.1765 17.6238 8.1644 17.6238C4.20965 17.681 1 20.8876 1 24.8385V31.7669H15.3861V31.8242Z" fill="#9DDE8B"/>
<path d="M36.2489 10.4663C36.2489 12.9284 34.2429 14.9325 31.7783 14.9325C29.3138 14.9325 27.3077 12.9284 27.3077 10.4663C27.3077 8.00409 29.3138 6 31.7783 6C34.2429 6 36.2489 8.00409 36.2489 10.4663Z" fill="#9DDE8B"/>
<path d="M39 31.8242V24.8385C39 20.8876 35.7904 17.6238 31.8356 17.6238C27.8809 17.6238 24.6139 20.8303 24.6139 24.8385V31.7669H39V31.8242Z" fill="#9DDE8B"/>
<path d="M24.4419 12.6422C24.4419 15.1043 22.4359 17.1084 19.9713 17.1084C17.5068 17.1084 15.5007 15.1043 15.5007 12.6422C15.5007 10.18 17.5068 8.1759 19.9713 8.1759C22.4359 8.1759 24.4419 10.18 24.4419 12.6422Z" fill="#40A578"/>
<path d="M27.193 34.0001V27.0144C27.193 23.0635 23.9834 19.7997 20.0286 19.7997C16.0739 19.7997 12.8069 23.0062 12.8069 27.0144V33.9428H27.193V34.0001Z" fill="#40A578"/>
</svg>
