<svg width="40" height="40" viewBox="0 0 40 40" fill="none" xmlns="http://www.w3.org/2000/svg">
<g clip-path="url(#clip0_226_679)">
<path d="M34.0236 17.1617C34.0236 14.7809 32.0942 12.9136 29.7412 12.9136C27.3412 12.9136 25.4589 14.8276 25.4589 17.1617C25.4589 19.5426 27.3883 21.4099 29.7412 21.4099C32.0942 21.4099 34.0236 19.4959 34.0236 17.1617Z" fill="#40A578"/>
<path d="M19.6705 15.6212C22.0356 15.6212 23.9529 13.7192 23.9529 11.373C23.9529 9.02684 22.0356 7.12488 19.6705 7.12488C17.3055 7.12488 15.3882 9.02684 15.3882 11.373C15.3882 13.7192 17.3055 15.6212 19.6705 15.6212Z" fill="#40A578"/>
<path d="M33.3508 7.16242C34.2509 4.99267 33.2076 2.50984 31.0203 1.61688C28.8331 0.72392 26.3303 1.75897 25.4302 3.92873C24.53 6.09849 25.5734 8.58131 27.7606 9.47427C29.9478 10.3672 32.4506 9.33218 33.3508 7.16242Z" fill="#40A578"/>
<path d="M10.2588 18.889C10.2588 18.889 17.4588 19.1225 22.8235 24.2109L28.1882 25.378C28.1882 25.378 30.5411 26.0782 30.3059 27.8989C30.0706 29.7662 26.5882 29.0659 26.5882 29.0659L19.1058 28.8325L24.7059 32.7539L37.0353 29.5328C37.0353 29.5328 38.6823 28.5057 39.7176 29.8596C40.7529 31.26 38.6823 32.6139 37.7882 33.3141L28.5176 37.9824C28.5176 37.9824 22.9176 40.7367 19.0588 38.1691L6.16467 32.2871V19.4492L10.2588 18.889Z" fill="#9DDE8B"/>
<path d="M6.58824 19.0291H0V33.2207H6.58824V19.0291Z" fill="#006769"/>
</g>
<defs>
<clipPath id="clip0_226_679">
<rect width="40" height="40" fill="white"/>
</clipPath>
</defs>
</svg>
