<svg width="40" height="40" viewBox="0 0 40 40" fill="none" xmlns="http://www.w3.org/2000/svg">
<path d="M21.0051 1H18.7318V12.2973H21.0051V1Z" fill="#006769"/>
<path d="M24.8695 11.2256V6.17981H14.8671V11.2256H12.1846V38.9554H27.552V11.2256H24.8695Z" fill="#9DDE8B"/>
<path d="M17.4129 21.6746H2V38.9554H17.4129V21.6746Z" fill="#40A578"/>
<path d="M8.77432 24.4877H5.36438V27.8367H8.77432V24.4877Z" fill="white"/>
<path d="M14.4123 24.4877H11.0023V27.8367H14.4123V24.4877Z" fill="white"/>
<path d="M38.0091 16.1375H22.5962V39H38.0091V16.1375Z" fill="#40A578"/>
<path d="M29.188 24.4877H25.7781V27.8367H29.188V24.4877Z" fill="white"/>
<path d="M34.8257 24.4877H31.4158V27.8367H34.8257V24.4877Z" fill="white"/>
<path d="M29.1881 19.0846H25.7782V22.4336H29.1881V19.0846Z" fill="white"/>
<path d="M34.8258 19.0846H31.4159V22.4336H34.8258V19.0846Z" fill="white"/>
</svg>
