<svg width="40" height="40" viewBox="0 0 40 40" fill="none" xmlns="http://www.w3.org/2000/svg">
<path d="M27.5777 6.54358H12.4666C10.5555 6.54358 9.04439 8.10829 9.04439 9.98593V15.9765V35.513C8.99994 37.48 10.5555 39 12.4222 39H27.5333C29.4444 39 30.9555 37.4353 30.9555 35.5577V16.0212V10.0306C30.9999 8.10829 29.4444 6.54358 27.5777 6.54358Z" fill="#40A578"/>
<path d="M31 8.68938C31 6.76703 29.4444 5.24703 27.5778 5.24703H12.4667C10.5556 5.20232 9 6.76703 9 8.68938V14.68H31V8.68938Z" fill="#40A578"/>
<path d="M9 15V35.4047C9 37.3658 10.5587 39 12.4291 39H27.5709C29.4858 39 31 37.3658 31 35.4047V15H9Z" fill="#9DDE8B"/>
<path d="M20.0221 1C18.5999 1 17.3999 2.16235 17.3999 3.63765V6.99059H22.5999V3.63765C22.5999 2.16235 21.4443 1 20.0221 1ZM20.0221 4.8C19.3555 4.8 18.8221 4.26353 18.8221 3.59294C18.8221 2.92235 19.3555 2.38588 20.0221 2.38588C20.6888 2.38588 21.2221 2.92235 21.2221 3.59294C21.1777 4.26353 20.6443 4.8 20.0221 4.8Z" fill="#9DDE8B"/>
<path d="M23.3111 6.18591H16.7333V7.92944H23.3111V6.18591Z" fill="#9DDE8B"/>
<path d="M20.0223 23.2635C17.1334 23.2635 14.7778 25.5883 14.7778 28.4941H25.2667C25.2667 25.633 22.9112 23.2635 20.0223 23.2635Z" fill="#40A578"/>
<path d="M22.8667 20.8047C22.8667 22.5929 21.5779 24.0682 20.0223 24.0682C18.4223 24.0682 17.1779 22.5929 17.1779 20.8047C17.1779 19.0164 18.4667 17.5411 20.0223 17.5411C21.5779 17.5411 22.8667 19.0164 22.8667 20.8047Z" fill="#40A578"/>
<path d="M26.6445 30.7294H13.3556V32.9647H26.6445V30.7294Z" fill="#006769"/>
</svg>
