<svg width="40" height="40" viewBox="0 0 40 40" fill="none" xmlns="http://www.w3.org/2000/svg">
<path d="M31.4834 8.68509C28.3936 5.50276 23.3298 5.50276 20.1971 8.68509L18.8668 10.0553L17.5365 8.68509C14.4467 5.50276 9.3829 5.50276 6.29312 8.68509C3.16043 11.8674 3.16043 17.0829 6.29312 20.3094L7.62344 21.6796L18.9097 33.2597L30.196 21.6354L31.5263 20.2652C34.6161 17.0829 34.6161 11.9116 31.4834 8.68509Z" fill="#9DDE8B"/>
<path d="M34.7448 20.6187C33.0712 18.895 30.4106 18.895 28.7369 20.6187L28.0503 21.3259L27.3637 20.6187C25.6901 18.895 23.0294 18.895 21.3558 20.6187C19.6822 22.3425 19.6822 25.0828 21.3558 26.8066L22.0424 27.5138L28.0503 33.7016L34.0582 27.5138L34.7448 26.8066C36.4185 25.0828 36.4185 22.3425 34.7448 20.6187Z" fill="#40A578"/>
</svg>
